<?xml version="1.0" encoding="utf-8"?>
<!-- Generator: Adobe Illustrator 26.3.1, SVG Export Plug-In . SVG Version: 6.00 Build 0)  -->
<svg version="1.1" id="Layer_1" xmlns="http://www.w3.org/2000/svg" xmlns:xlink="http://www.w3.org/1999/xlink" x="0px" y="0px"
	 viewBox="0 0 324 46" style="enable-background:new 0 0 324 46;" xml:space="preserve">
<style type="text/css">
	.st0{fill:#3EAE2B;}
	.st1{fill:#0068C7;}
	.st2{fill:none;stroke:#CACACA;}
	.st3{fill:#00569E;}
</style>
<path class="st0" d="M8.9,5.6l-8.1,9.1l2,2.3L13.4,5h-3.2C9.7,5,9.2,5.2,8.9,5.6z"/>
<path class="st0" d="M15.1,5.6L3.9,18.2l2,2.3L19.6,5h-3.2C15.9,5,15.4,5.2,15.1,5.6z"/>
<path class="st0" d="M25.8,5h-3.2c-0.5,0-1,0.2-1.3,0.6L6.9,21.8l13,15c0.3,0.4,0.8,0.6,1.3,0.6h3.1L10.8,21.8L25.8,5z"/>
<path class="st1" d="M12.1,37.4l-11.3-13v4.5l6.8,7.9c0.3,0.4,0.8,0.6,1.3,0.6H12.1z"/>
<path class="st1" d="M18.2,37.4L0.8,17.3v4.5l13,15c0.3,0.4,0.8,0.6,1.3,0.6H18.2z"/>
<path class="st1" d="M31.3,7.4h3V35h-3V7.4z M43.3,15.5h3.8l-8.1,9.2l9,10.3h-3.8l-9-10.3L43.3,15.5z"/>
<path class="st1" d="M51.7,6.9c1.1,0,1.9,0.9,1.9,1.9c0,1.1-0.9,1.9-1.9,1.9c-1.1,0-1.9-0.9-1.9-1.9C49.7,7.7,50.6,6.9,51.7,6.9z
	 M50.2,15.5h3V35h-3V15.5z"/>
<path class="st1" d="M57.6,10.2h3v5.3h7.8v2.8h-7.8v9.9c0,3.4,1.5,4.4,3.8,4.4c1.6,0,3.3-0.4,4.5-0.9l0.5,2.8
	c-1.3,0.6-3.1,0.9-4.9,0.9c-4,0-6.8-1.8-6.8-7.2L57.6,10.2L57.6,10.2z"/>
<path class="st1" d="M79,31l5.3-15.5h3L92.7,31L98,15.5h3.1L94.2,35h-3.1l-5.3-15l-5.3,15h-3.1l-6.8-19.5h3.1L79,31z"/>
<path class="st1" d="M117.1,34.2c-1.8,0.7-4.7,1.1-7.4,1.1c-4.7,0-7.8-1.6-7.8-6c0-4.4,3.1-6,8.5-6h3.9v-1.9c0-2.7-1.9-3.5-5-3.5
	c-2.3,0-4.2,0.4-5.4,0.9l-0.5-2.7c1.6-0.5,3.6-0.9,5.9-0.9c4.5,0,7.8,1.6,7.8,6.5V34.2z M114.1,25.7h-3.8c-3.6,0-5.5,0.9-5.5,3.6
	c0,2.7,1.9,3.5,4.8,3.5c1.4,0,3.3-0.2,4.6-0.6V25.7z"/>
<path class="st1" d="M121.7,16.3c1.3-0.6,3.8-1.1,6.1-1.1c1.5,0,2.8,0.2,3.9,0.5l-0.6,2.7c-0.6-0.2-1.8-0.5-3.3-0.5
	c-1.7,0-2.6,0.2-3.3,0.5V35h-3L121.7,16.3L121.7,16.3z"/>
<path class="st1" d="M148.9,26.4h-13.4v0.2c0,4.1,2.4,6,6.5,6c2.3,0,4.7-0.6,6.1-1.3l0.5,2.8c-1.9,0.9-4.2,1.3-6.6,1.3
	c-6.3,0-9.4-3.1-9.4-10c0-5.6,2.1-10.1,8.5-10.1c5.2,0,8.2,2.9,8.2,8.6C149.2,24.5,149.2,25.6,148.9,26.4z M135.5,23.9h10.9v-0.2
	c0-4.2-2.1-5.9-5.4-5.9c-3.3,0-5.4,1.7-5.4,5.9L135.5,23.9L135.5,23.9z"/>
<line class="st2" x1="170.6" y1="0.9" x2="170.6" y2="42.4"/>
<g>
	<path class="st1" d="M229.5,21.4h8.6v12c-1.5,1-3.8,1.9-7.3,1.9c-7.9,0-10.9-4-10.9-12.9c0-8.1,2.9-12.9,10.8-12.9
		c3.5,0,5.5,0.9,7.3,1.8l-0.4,2.9c-1.5-0.9-4-1.9-6.9-1.9c-5.8,0-7.7,3.3-7.7,10.1c0,6.4,1.6,10.1,7.8,10.1c1.9,0,3.3-0.4,4.6-0.9
		v-7.5h-5.8V21.4z"/>
	<path class="st1" d="M243,7.8h2.9v21.3c0,2.6,0.8,3.3,2.1,3.3c0.7,0,1.3-0.1,1.7-0.3l0.4,2.6c-0.5,0.2-1.3,0.4-2.3,0.4
		c-2.7,0-4.8-1.4-4.8-5.6V7.8z"/>
	<path class="st1" d="M267.2,34.1c-1.8,0.6-4.6,1.1-7.3,1.1c-4.6,0-7.7-1.5-7.7-5.9c0-4.3,3.1-5.9,8.3-5.9h3.8v-1.9
		c0-2.6-1.8-3.5-4.8-3.5c-2.2,0-4,0.4-5.2,0.8l-0.4-2.7c1.5-0.4,3.5-0.8,5.8-0.8c4.4,0,7.6,1.6,7.6,6.3V34.1z M264.3,25.7h-3.7
		c-3.5,0-5.4,0.9-5.4,3.6c0,2.7,1.9,3.4,4.7,3.4c1.4,0,3.2-0.2,4.4-0.6V25.7z"/>
	<path class="st1" d="M271.7,16.8c1.7-0.7,4.8-1.3,8-1.3c4.8,0,7.9,1.7,7.9,7.6v11.9h-2.9V23.1c0-4.2-2-4.9-5-4.9
		c-2.2,0-3.8,0.3-5.1,0.8v15.9h-2.9V16.8z"/>
	<path class="st1" d="M299.9,15.4c2.1,0,3.7,0.4,5,1l-0.5,2.7c-1-0.5-2.4-1-4.4-1c-4.8,0-6.1,2.9-6.1,7.1c0,5,1.9,7.2,6.4,7.2
		c1.5,0,3.1-0.2,4.6-0.9l0.4,2.7c-1.5,0.6-3.4,0.9-5.2,0.9c-5.8,0-9.1-3.3-9.1-9.8C290.9,19.5,293.6,15.4,299.9,15.4z"/>
	<path class="st1" d="M323.7,26.5h-13.1v0.2c0,4,2.3,5.8,6.3,5.8c2.2,0,4.6-0.6,6-1.3l0.4,2.7c-1.9,0.8-4.1,1.3-6.5,1.3
		c-6.1,0-9.2-3.1-9.2-9.8c0-5.5,2-9.9,8.3-9.9c5,0,8,2.8,8,8.4C324,24.6,324,25.6,323.7,26.5z M310.7,24h10.6v-0.2
		c0-4.1-2.1-5.8-5.3-5.8c-3.2,0-5.3,1.6-5.3,5.8V24z"/>
</g>
<g>
	<path class="st3" d="M195.9,37.3h3.1c0.5,0,1-0.2,1.3-0.6l14.1-15.9l0,0l0,0L201.7,6.1c-0.3-0.4-0.8-0.6-1.3-0.6h-3.1l13.2,15.3
		L195.9,37.3z"/>
</g>
<g>
	<path class="st0" d="M191.4,11.6l8,9.2l-8,8.8h3.1c0.5,0,1-0.2,1.3-0.6l7.5-8.2l0,0l-7.5-8.7c-0.3-0.3-0.7-0.5-1.1-0.5H191.4z"/>
</g>
<g>
	<path class="st1" d="M196.5,7.3h-3.2l11.7,13.5l-11.7,12.7h3.1c0.5,0,1-0.2,1.3-0.6l11.1-12.1l0,0L197.5,7.7
		C197.2,7.4,196.9,7.3,196.5,7.3z"/>
</g>
</svg>
