<?xml version="1.0" encoding="UTF-8"?>
<svg width="180px" height="180px" viewBox="0 0 180 180" version="1.1" xmlns="http://www.w3.org/2000/svg" xmlns:xlink="http://www.w3.org/1999/xlink">
    <!-- Generator: Sketch 43.2 (39069) - http://www.bohemiancoding.com/sketch -->
    <title>itk-js</title>
    <desc>Created with Sketch.</desc>
    <defs></defs>
    <g id="Page-1" stroke="none" stroke-width="1" fill="none" fill-rule="evenodd">
        <g id="itk-js">
            <path d="M106.769437,53.0241287 C106.211793,56.0214627 105.445045,59.1233084 104.469169,62.3297587 C103.493293,65.5362091 102.0295,68.4463676 100.077748,71.0603217 C98.1259956,73.6742758 95.5469329,75.817686 92.3404826,77.4906166 C89.1340322,79.1635472 85.056325,80 80.1072386,80 C73.7640434,80 68.605918,78.4490772 64.6327078,75.347185 C60.6594976,72.2452928 58.1152871,68.0456029 57,62.7479893 L73.1018767,57.5201072 C73.3806984,59.4021542 74.1125946,61.0053553 75.2975871,62.3297587 C76.4825797,63.6541621 78.0509286,64.3163539 80.002681,64.3163539 C83.0697204,64.3163539 85.2654089,63.2359357 86.5898123,61.075067 C87.9142157,58.9141983 88.8552251,56.1957268 89.4128686,52.919571 L97.9865952,3.98659517 L115.552279,3.98659517 L106.769437,53.0241287 Z M164.798928,21.9705094 C163.404819,20.0884624 161.662209,18.6595223 159.571046,17.6836461 C157.479882,16.7077699 155.144785,16.2198391 152.565684,16.2198391 C151.380691,16.2198391 150.126012,16.376674 148.801609,16.6903485 C147.477205,17.004023 146.274804,17.526806 145.19437,18.2587131 C144.113936,18.9906203 143.207778,19.9142035 142.475871,21.0294906 C141.743964,22.1447777 141.378016,23.5040134 141.378016,25.1072386 C141.378016,27.1984019 142.197043,28.8538813 143.835121,30.0737265 C145.473199,31.2935718 147.756018,32.4262682 150.683646,33.4718499 C153.890096,34.5871369 156.747977,35.82439 159.257373,37.1836461 C161.766769,38.5429022 163.892753,40.0938251 165.635389,41.8364611 C167.378025,43.5790972 168.702408,45.5482464 169.608579,47.7439678 C170.51475,49.9396893 170.967828,52.4316214 170.967828,55.2198391 C170.967828,59.6809875 170.044245,63.4798771 168.197051,66.616622 C166.349857,69.7533669 163.962481,72.3150035 161.034853,74.3016086 C158.107224,76.2882137 154.831117,77.7345799 151.206434,78.6407507 C147.581751,79.5469214 143.991975,80 140.436997,80 C137.788191,80 135.139423,79.7560346 132.490617,79.2680965 C129.84181,78.7801584 127.297599,78.0656884 124.857909,77.1246649 C122.418218,76.1836414 120.152825,74.9812406 118.061662,73.5174263 C115.970499,72.053612 114.193037,70.3807065 112.729223,68.4986595 L125.589812,58.0428954 C127.053627,60.2734696 129.214463,62.0857839 132.072386,63.4798928 C134.930309,64.8740016 137.823042,65.5710456 140.75067,65.5710456 C142.28419,65.5710456 143.765408,65.4142107 145.19437,65.1005362 C146.623332,64.7868617 147.895437,64.2640787 149.010724,63.5321716 C150.126011,62.8002644 151.014742,61.8592551 151.676944,60.7091153 C152.339145,59.5589755 152.670241,58.1823136 152.670241,56.5790885 C152.670241,53.9999871 151.624675,51.9611335 149.533512,50.4624665 C147.442349,48.9637995 144.654173,47.6219898 141.168901,46.4369973 C138.72921,45.600532 136.446391,44.6595227 134.320375,43.613941 C132.194359,42.5683594 130.347193,41.278828 128.77882,39.7453083 C127.210448,38.2117886 125.955769,36.3820482 125.014745,34.2560322 C124.073722,32.1300162 123.603217,29.5683796 123.603217,26.5710456 C123.603217,22.8069517 124.387392,19.4088623 125.955764,16.3766756 C127.524137,13.3444889 129.667547,10.7654262 132.386059,8.63941019 C135.104571,6.5133942 138.276121,4.87534087 141.900804,3.72520107 C145.525487,2.57506127 149.394081,2 153.506702,2 C155.667571,2 157.86326,2.20911319 160.093834,2.62734584 C162.324408,3.0455785 164.467818,3.65549197 166.524129,4.45710456 C168.580439,5.25871714 170.479884,6.2520048 172.22252,7.43699732 C173.965156,8.62198984 175.428948,9.98122558 176.613941,11.5147453 L164.798928,21.9705094 Z" id="JS" fill="#8A8B8A"></path>
            <g id="itk" transform="translate(3.000000, 52.000000)">
                <path d="M51.2328756,61.150711 C51.2328756,61.150711 59.7276686,56.1432526 63.4134134,52.398928 C67.0991582,48.6546034 73.7854196,38.2397256 73.7854196,38.2397256 L77.2680167,38.2397256 L77.2680167,61.150711 L96.6825757,61.150711 L96.4870833,66.1931818 L77.2680167,66.1931818 L77.2680167,108.017671 C77.2680167,108.017671 79.8038564,116.911046 85.6240731,117.338813 C91.4442898,117.766581 96.6825757,112.548615 96.6825757,112.548615 L98.2328756,115.174051 C98.2328756,115.174051 89.5775651,123.986658 78.6090799,124.234943 C67.6405947,124.483228 60.9693043,114.992573 60.8474625,112.548615 C60.7256208,110.104657 60.8474625,66.1931818 60.8474625,66.1931818 L51.2328756,66.1931818 L51.2328756,61.150711 Z" id="Path-2" fill="#285299"></path>
                <path d="M98.2995231,28 L121.873528,28 L121.873528,90.6248865 C121.873528,90.6248865 123.869748,91.3021034 124.821506,90.6248865 C125.773265,89.9476695 143.183572,75.4618774 143.183572,75.4618774 L143.183572,68.0644039 L136.426868,68.0644039 L136.426868,64.6383763 L164.6278,64.6383763 L164.6278,68.0644039 L159.140126,68.0644039 L136.426868,86.4083838 L138.150818,89.1974544 L162.255017,119.320371 C162.255017,119.320371 168.218716,118.527121 169.451913,119.320371 C170.685109,120.113621 169.451913,123.949751 169.451913,123.949751 L145.607083,122.923755 L124.821506,95.5889554 L121.873528,95.5889554 L121.873528,115.839992 L128.131947,122.923755 L99.3869121,122.923755 L107.46501,115.839992 L107.46501,35.5385957 L102.442893,30.4934768 C102.442893,30.4934768 98.9734501,30.8990456 98.2995231,30.4934768 C97.6255961,30.0879081 98.2995231,28 98.2995231,28 Z" id="Path-3" fill="#285299"></path>
                <g id="I" transform="translate(0.000000, 37.000000)">
                    <polygon id="Path" fill="#285299" points="9.30811413 7.0370153 9.30811413 3.5493159 37.8382274 0.330942152 38.1773047 76.1657346 46.0313246 85.7897278 10.3472526 85.7897278 20.3395547 77.122585 19.6309214 12.9594726"></polygon>
                    <path d="M27.931647,81.7606703 C27.931647,81.7606703 20.9338924,77.5042424 19.3918528,73.5631557 C17.8498133,69.6220689 18.7637887,61.9557513 18.7637887,61.9557513 C18.7637887,61.9557513 13.2465537,63.2732921 13.2465537,69.800717 C13.2465537,76.328142 16.7603192,81.8743555 18.2831845,81.8743555 C19.8060497,81.8743555 27.931647,81.7606703 27.931647,81.7606703 Z" id="Path-4" stroke="#000000" fill="#E8B222"></path>
                    <path d="M18.9060648,32.031336 L18.9372932,41.8685581 C18.9372932,41.8685581 25.9505433,48.0680189 28.6034687,49.8109184 C31.2563941,51.5538179 39.9373886,54.0313483 39.9373886,54.0313483 C39.9373886,54.0313483 42.8076735,54.2084908 42.8521615,60.390343 C42.8966496,66.5721952 38.6062169,67.1569769 38.6062169,67.1569769 C38.6062169,67.1569769 31.2203328,65.2332371 21.8254228,59.2986097 C12.4305128,53.3639822 13.3062707,50.0204607 13.3062707,44.1758133 C13.3062707,38.3311658 18.9060648,32.031336 18.9060648,32.031336 Z" id="Path-5" stroke="#000000" fill="#E8B222"></path>
                    <path d="M0.761922566,18.3386746 C-0.326389137,19.7339379 -0.0638526138,22.3712462 0.761922566,23.3429457 C1.56192478,24.2843179 5.33839049,22.6610588 6.74498752,26.1094115 C8.15158455,29.5577643 10.0147429,28.5214731 12.5789381,28.5214731 C15.1431333,28.5214731 15.2506945,25.3352026 16.9169511,25.3517256 C18.5832077,25.3682486 19.412403,25.3517256 20.6273818,25.3517256 C21.8423606,25.3517256 27.0423245,27.7837421 30.2355471,29.5383679 C33.4287696,31.2929937 38.4642283,35.1527937 38.4642283,35.1527937 L38.3785556,45.7921621 C38.3785556,45.7921621 45.4091874,41.3042177 45.4753657,32.2364802 C45.541544,23.1687428 36.2476829,19.8422696 32.9252588,18.044905 C29.6028347,16.2475403 22.3545156,16.2300454 20.9035522,16.2300454 C19.4525888,16.2300454 17.5737842,16.2218482 16.9169511,16.2300454 C15.125691,16.2524 16.3068111,12.6438206 12.5789381,12.6438206 C8.85106506,12.6438206 8.48699893,13.7085836 7.35187869,15.5443399 C6.21675845,17.3800963 1.85023427,16.9434113 0.761922566,18.3386746 Z" id="Path-6" stroke="#000000" fill="#E8B222"></path>
                    <ellipse id="Oval" fill="#000000" cx="9.7890625" cy="17.8774194" rx="1.3984375" ry="1"></ellipse>
                    <ellipse id="Oval" fill="#000000" cx="9.7890625" cy="23.8387097" rx="1.3984375" ry="1"></ellipse>
                </g>
                <g id="eye">
                    <ellipse id="Oval-2" stroke="#285299" stroke-width="2" cx="24.1272615" cy="13.8352941" rx="24.1272615" ry="13.8352941"></ellipse>
                    <ellipse id="Oval-3" fill="#285299" cx="26.01446" cy="13.2588235" rx="13.8249041" ry="13.2588235"></ellipse>
                    <ellipse id="Oval-4" fill="#000000" cx="26.01446" cy="13.8352941" rx="5.40974507" ry="5.76470588"></ellipse>
                </g>
            </g>
        </g>
    </g>
</svg>