<?xml version="1.0" encoding="utf-8"?>
<!-- Generator: Adobe Illustrator 18.0.0, SVG Export Plug-In . SVG Version: 6.00 Build 0)  -->
<!DOCTYPE svg PUBLIC "-//W3C//DTD SVG 1.1//EN" "http://www.w3.org/Graphics/SVG/1.1/DTD/svg11.dtd">
<svg version="1.1" xmlns="http://www.w3.org/2000/svg" xmlns:xlink="http://www.w3.org/1999/xlink" x="0px" y="0px"
	 viewBox="0 0 792 360" enable-background="new 0 0 792 360" xml:space="preserve">
<g id="LogoMark">
	<g>
		<path fill="#00539B" d="M159,220.4c-2.1,0-4.1,0-6.2,0c-61.1-16.4-62.3-101.3-3.6-117.6c4.5,0,9,0,13.5,0
			C101.6,119.2,100.3,204.1,159,220.4z"/>
	</g>
	<g>
		<path fill="#00539B" d="M172.8,225.5c-2.1,0-4.1,0-6.2,0c-61.1-16.4-62.3-101.3-3.6-117.6c4.5,0,9,0,13.5,0
			C115.4,124.2,114.1,209.1,172.8,225.5z"/>
	</g>
	<g>
		<path fill="#00539B" d="M186.6,230.5c-2.1,0-4.1,0-6.2,0c-61.1-16.4-62.3-101.3-3.6-117.6c4.5,0,9,0,13.5,0
			C129.1,129.2,127.9,214.1,186.6,230.5z"/>
	</g>
	<path fill="#00A94F" d="M80.9,227.2c-1-1-2.1-2-3.1-3c11.3-44.9,4.8-88-15.7-119.7c3.8-3.6,7.6-7.2,11.4-10.9
		C93.4,133.3,96.5,181.3,80.9,227.2z"/>
	<path fill="#00A94F" d="M85.3,231.4c-1-1-2.1-2-3.1-3c17.3-46.3,15.5-96.3-4.1-139.1c3.8-3.6,7.6-7.2,11.3-10.9
		C108.5,129.1,106.8,184.1,85.3,231.4z"/>
	<path fill="#00A94F" d="M89.6,235.5c-1-1-2.1-2-3.1-3c23.2-47.6,26.3-104.6,7.4-158.4c3.8-3.6,7.6-7.2,11.4-10.9
		C123.6,125,117,187,89.6,235.5z"/>
</g>
<g id="Kitware">
	<path fill="#00539B" d="M243.3,118.7l-8.7,40.3h0.3l40.8-40.3h28.7l-51.9,46.8l33.1,55.9h-24.6l-28.5-52.2l-11.2,52.2h-20.6
		l22.1-102.7H243.3z"/>
	<path fill="#00539B" d="M312,145.6h19.7l-16.2,75.8h-19.7L312,145.6z M319.2,113h19.7l-4.1,18.8h-19.7L319.2,113z"/>
	<path fill="#00539B" d="M343,145.6h14.3l3.4-15.6l21.2-6.9l-4.9,22.5h17.7l-3.1,14.4h-17.7l-7.2,33.1c-0.4,1.8-0.9,4.4-0.9,7.3
		c0,4.6,3.1,7.4,7.5,7.4c3.5,0,7.1-0.7,9.6-1.8l-3.4,15.3c-3.4,0.7-7.2,1.8-10.6,1.8c-13.4,0-22.8-5.3-22.8-19.9
		c0-5.9,1.2-11.6,2.5-17.7l5.6-25.6h-14.3L343,145.6z"/>
	<path fill="#00539B" d="M402.9,145.6h19.7l5.4,56.9h0.3l27.8-56.9h21.9l4.1,56.9h0.3l29.1-56.9h20.2l-42.1,75.8h-22.2l-4.3-58h-0.3
		l-27.6,58h-22.4L402.9,145.6z"/>
	<path fill="#00539B" d="M570.5,209.8h-0.3c-6.8,8.5-13.5,13.4-24.4,13.4c-13.7,0-23.4-7.6-23.4-21.6c0-25,27.9-26.9,46.5-26.9h6.9
		c0.6-2.1,0.6-4.3,0.6-6.5c0-7.7-8.2-9.9-15.2-9.9c-8.7,0-17.1,2.2-24.9,5.9l2.8-15.7c8.4-2.9,16.9-4.6,25.7-4.6
		c15.2,0,29.4,5.6,29.4,23.4c0,10.1-7.5,39.9-9.3,54.1h-16.6L570.5,209.8z M551.2,208.7c14.7,0,19.3-10.2,22.4-22.4h-6.9
		c-9.6,0-25.5,1.6-25.5,14.4C541.2,206.1,546.2,208.7,551.2,208.7z"/>
	<path fill="#00539B" d="M614.1,155.8c0.6-3.2,1.2-6.6,1.8-10.2h18.8l-2.6,14.3h0.3c3.5-8.2,13.2-16,22.4-16c2.5,0,5.2,0.1,7.5,0.7
		l-4.1,19.3c-2.2-0.7-5-1.2-7.5-1.2c-14,0-20.7,12.5-23.3,24.7l-7.1,34h-19.7L614.1,155.8z"/>
	<path fill="#00539B" d="M676.8,189.6c0,14,7.5,19.1,21,19.1c8.1,0,15.9-2.1,23.2-5.4l-2.5,15.6c-7.6,2.4-16,4.3-24.1,4.3
		c-21.8,0-36.5-10.6-36.5-33.1c0-23.5,18.2-46.2,43.1-46.2c18.7,0,31,9.6,31,28.8c0,5.7-0.7,11.3-1.9,16.9H676.8z M712.8,176.1
		c0.3-1.8,0.4-3.4,0.4-5.1c0-8.1-4.3-12.7-12.5-12.7c-12.2,0-17.5,7.4-21.3,17.8H712.8z"/>
</g>
</svg>
