<?xml version="1.0" encoding="UTF-8"?><svg id="Layer_2" xmlns="http://www.w3.org/2000/svg" viewBox="0 0 68.34 94.5"><g id="Layer_3"><path d="M13.55,94.5h9.21c1.47,0,2.87-.63,3.84-1.73l41.74-47.22h0L30.65,1.78c-.97-1.13-2.39-1.78-3.88-1.78h-9.06L56.88,45.49,13.55,94.5Z" style="fill:#00569f;"/><path d="M.15,18.05l23.63,27.44L0,71.49H9.21c1.47,0,2.87-.63,3.84-1.73l22.2-24.21h0L12.9,19.59c-.85-.98-2.08-1.55-3.37-1.55H.15Z" style="fill:#3eae2b;"/><path d="M15.21,5.32H5.7L40.29,45.49,5.66,83.26H14.87c1.47,0,2.87-.63,3.84-1.73L51.76,45.55h0L18.35,6.76c-.79-.91-1.93-1.44-3.14-1.44Z" style="fill:#0068c7;"/></g></svg>