<?xml version="1.0" encoding="utf-8"?>
<!-- Generator: Adobe Illustrator 22.1.0, SVG Export Plug-In . SVG Version: 6.00 Build 0)  -->
<svg version="1.1" id="Layer_1" xmlns="http://www.w3.org/2000/svg" xmlns:xlink="http://www.w3.org/1999/xlink" x="0px" y="0px"
	 viewBox="0 0 128.2 172.3" style="enable-background:new 0 0 128.2 172.3;" xml:space="preserve">
<style type="text/css">
	.st0{fill:#757575;}
</style>
<g id="LogoMark">
	<g>
		<path class="st0" d="M96.9,157.2c-2.1,0-4.1,0-6.2,0C29.6,140.8,28.4,55.9,87.1,39.6c4.5,0,9,0,13.5,0
			C39.5,56,38.2,140.9,96.9,157.2z"/>
	</g>
	<g>
		<path class="st0" d="M110.7,162.3c-2.1,0-4.1,0-6.2,0C43.4,145.9,42.2,61,100.9,44.7c4.5,0,9,0,13.5,0
			C53.3,61,52,145.9,110.7,162.3z"/>
	</g>
	<g>
		<path class="st0" d="M124.5,167.3c-2.1,0-4.1,0-6.2,0C57.2,150.9,56,66,114.7,49.7c4.5,0,9,0,13.5,0C67,66,65.8,150.9,124.5,167.3
			z"/>
	</g>
	<path class="st0" d="M18.8,164c-1-1-2.1-2-3.1-3C27,116.1,20.5,73,0,41.3c3.8-3.6,7.6-7.2,11.4-10.9C31.3,70.1,34.4,118.1,18.8,164
		z"/>
	<path class="st0" d="M23.2,168.2c-1-1-2.1-2-3.1-3C37.4,118.9,35.6,68.9,16,26.1c3.8-3.6,7.6-7.2,11.3-10.9
		C46.4,65.9,44.7,120.9,23.2,168.2z"/>
	<path class="st0" d="M27.5,172.3c-1-1-2.1-2-3.1-3c23.2-47.6,26.3-104.6,7.4-158.4C35.6,7.3,39.4,3.7,43.2,0
		C61.5,61.8,54.9,123.8,27.5,172.3z"/>
</g>
</svg>
