<?xml version="1.0" encoding="UTF-8"?>
<svg width="180px" height="180px" viewBox="0 0 180 180" version="1.1" xmlns="http://www.w3.org/2000/svg" xmlns:xlink="http://www.w3.org/1999/xlink">
    <!-- Generator: Sketch 43.2 (39069) - http://www.bohemiancoding.com/sketch -->
    <title>action-load</title>
    <desc>Created with Sketch.</desc>
    <defs>
        <linearGradient x1="57.8957917%" y1="50%" x2="41.7930814%" y2="50%" id="linearGradient-1">
            <stop stop-color="#FFFFFF" offset="0%"></stop>
            <stop stop-color="#D8D8D8" offset="100%"></stop>
        </linearGradient>
    </defs>
    <g id="Page-1" stroke="none" stroke-width="1" fill="none" fill-rule="evenodd">
        <g id="action-load">
            <path d="M30,132 L150,132 C150,132 165,132 165,147 C165,162 150,162 150,162 L30,162 C30,162 15,162 15,147 C15,132 30,132 30,132 Z" id="Path-3" stroke="#4A4A4A" stroke-width="4" fill="url(#linearGradient-1)"></path>
            <path d="M35.0346891,62.9716555 C35.0346891,60.207782 37.2705183,57.9672199 40.0407193,57.9672199 L117.034689,57.9672199 L117.034689,37.9662574 C117.034689,35.2053652 118.367561,34.7636447 120.016245,36.9857155 L143.731463,68.9487243 C145.378131,71.1680782 145.380147,74.7636447 143.731463,76.9857155 L120.016245,108.948724 C118.369577,111.168078 117.034689,110.726635 117.034689,107.968182 L117.034689,87.9672199 L40.0407193,87.9672199 C37.2759652,87.9672199 35.0346891,85.7368533 35.0346891,82.9627844 L35.0346891,62.9716555 Z" id="Path-3" fill="#4A4A4A" transform="translate(90.000955, 72.966265) rotate(90.000000) translate(-90.000955, -72.966265) "></path>
        </g>
    </g>
</svg>