<?xml version="1.0" encoding="UTF-8"?>
<svg width="180px" height="180px" viewBox="0 0 180 180" version="1.1" xmlns="http://www.w3.org/2000/svg" xmlns:xlink="http://www.w3.org/1999/xlink">
    <!-- Generator: Sketch 43.2 (39069) - http://www.bohemiancoding.com/sketch -->
    <title>action-reset-camera</title>
    <desc>Created with Sketch.</desc>
    <defs></defs>
    <g id="Page-1" stroke="none" stroke-width="1" fill="none" fill-rule="evenodd">
        <g id="action-reset-camera" stroke="#4A4A4A">
            <path d="M16,25.9983247 C16,20.4764024 20.4696675,16 25.9983247,16 L154.001675,16 C159.523598,16 164,20.4696675 164,25.9983247 L164,154.001675 C164,159.523598 159.530333,164 154.001675,164 L25.9983247,164 C20.4764024,164 16,159.530333 16,154.001675 L16,25.9983247 Z" id="background" stroke-width="4" fill="#D8D8D8"></path>
            <path d="M45,135 L135,45" id="Line" stroke-width="10" stroke-linecap="square"></path>
            <path d="M45,45 L135,135" id="Line" stroke-width="10" stroke-linecap="square"></path>
            <polyline id="Path-4" stroke-width="8" points="40 65 40 40 65 40"></polyline>
            <polyline id="Path-4" stroke-width="8" transform="translate(52.500000, 127.500000) scale(1, -1) translate(-52.500000, -127.500000) " points="40 140 40 115 65 115"></polyline>
            <polyline id="Path-4" stroke-width="8" transform="translate(127.500000, 127.500000) scale(-1, -1) translate(-127.500000, -127.500000) " points="115 140 115 115 140 115"></polyline>
            <polyline id="Path-4" stroke-width="8" transform="translate(127.500000, 52.500000) scale(-1, 1) translate(-127.500000, -52.500000) " points="115 65 115 40 140 40"></polyline>
        </g>
    </g>
</svg>