<?xml version="1.0" encoding="UTF-8"?>
<svg width="180px" height="180px" viewBox="0 0 180 180" version="1.1" xmlns="http://www.w3.org/2000/svg" xmlns:xlink="http://www.w3.org/1999/xlink">
    <!-- Generator: Sketch 43.2 (39069) - http://www.bohemiancoding.com/sketch -->
    <title>annotation-angle</title>
    <desc>Created with Sketch.</desc>
    <defs></defs>
    <g id="Page-1" stroke="none" stroke-width="1" fill="none" fill-rule="evenodd">
        <g id="annotation-angle">
            <path d="M27.5,143.5 L155.5,143.5" id="Line" stroke="#4A4A4A" stroke-width="5" stroke-linecap="square"></path>
            <path d="M28,141.756786 L106.943461,41" id="Line" stroke="#4A4A4A" stroke-width="5" stroke-linecap="square"></path>
            <path d="M82.2396359,143.514763 C82.2396359,143.514763 84.8692021,129.858813 78.7177604,116.802357 C75.4153023,109.792879 61.7116411,99.4099287 61.7116411,99.4099287 L27.0965647,143.514763 L82.2396359,143.514763 Z" id="Path-2" stroke="#4A4A4A" stroke-width="4" fill="#D8D8D8"></path>
            <path d="M141.088,78.608 L132.192,94.032 L132.192,96.4 C132.192,99.472 132.832,102.736 134.368,102.736 C135.136,102.736 136.096,101.52 137.312,98 L138.272,98.448 C137.12,103.12 135.008,106.64 132.192,106.64 C129.888,106.64 128.096,104.016 127.968,101.072 L127.84,101.072 C125.664,104.272 122.336,106.64 118.048,106.64 C112.608,106.64 109.792,101.648 109.792,96.336 C109.792,94.928 109.856,93.712 110.24,92.112 C112.032,84.624 117.728,77.776 124.64,77.776 C129.568,77.776 131.936,82 131.936,86.48 L136.032,78.608 L141.088,78.608 Z M127.84,88.528 C127.84,84.176 127.584,79.696 123.872,79.696 C120.224,79.696 115.168,87.824 115.168,98 C115.168,101.648 115.424,104.72 118.624,104.72 C122.72,104.72 126.304,96.592 127.52,93.072 C127.776,91.792 127.84,90.256 127.84,88.528 Z" id="ð›¼" fill="#4A4A4A"></path>
        </g>
    </g>
</svg>