<?xml version="1.0" encoding="UTF-8"?>
<svg width="180px" height="180px" viewBox="0 0 180 180" version="1.1" xmlns="http://www.w3.org/2000/svg" xmlns:xlink="http://www.w3.org/1999/xlink">
    <!-- Generator: Sketch 43.2 (39069) - http://www.bohemiancoding.com/sketch -->
    <title>annotation-mesure</title>
    <desc>Created with Sketch.</desc>
    <defs>
        <rect id="path-1" x="0" y="0" width="180" height="45"></rect>
    </defs>
    <g id="Page-1" stroke="none" stroke-width="1" fill="none" fill-rule="evenodd">
        <g id="annotation-mesure">
            <g id="Group" transform="translate(90.000000, 90.500000) scale(-1, 1) rotate(45.000000) translate(-90.000000, -90.500000) translate(0.000000, 68.000000)">
                <g id="background">
                    <use fill="#D8D8D8" fill-rule="evenodd" xlink:href="#path-1"></use>
                    <rect stroke="#4A4A4A" stroke-width="5" x="2.5" y="2.5" width="175" height="40"></rect>
                </g>
                <path d="M15.5,2.5 L15.5,16.5" id="Line" stroke="#4A4A4A" stroke-width="5" stroke-linecap="square"></path>
                <path d="M30.5,2.5 L30.5,16.5" id="Line" stroke="#4A4A4A" stroke-width="5" stroke-linecap="square"></path>
                <path d="M45.5,2.5 L45.5,16.5" id="Line" stroke="#4A4A4A" stroke-width="5" stroke-linecap="square"></path>
                <path d="M60.5,2.5 L60.5,16.5" id="Line" stroke="#4A4A4A" stroke-width="5" stroke-linecap="square"></path>
                <path d="M75.5,2.5 L75.5,16.5" id="Line" stroke="#4A4A4A" stroke-width="5" stroke-linecap="square"></path>
                <path d="M90.5,2.5 L90.5,16.5" id="Line" stroke="#4A4A4A" stroke-width="5" stroke-linecap="square"></path>
                <path d="M105.5,2.5 L105.5,16.5" id="Line" stroke="#4A4A4A" stroke-width="5" stroke-linecap="square"></path>
                <path d="M120.5,2.5 L120.5,16.5" id="Line" stroke="#4A4A4A" stroke-width="5" stroke-linecap="square"></path>
                <path d="M135.5,2.5 L135.5,16.5" id="Line" stroke="#4A4A4A" stroke-width="5" stroke-linecap="square"></path>
                <path d="M150.5,2.5 L150.5,16.5" id="Line" stroke="#4A4A4A" stroke-width="5" stroke-linecap="square"></path>
                <path d="M165.5,2.5 L165.5,16.5" id="Line" stroke="#4A4A4A" stroke-width="5" stroke-linecap="square"></path>
            </g>
        </g>
    </g>
</svg>