<svg xmlns="http://www.w3.org/2000/svg" xmlns:xlink="http://www.w3.org/1999/xlink" x="0px" y="0px" viewBox="0 0 185.8 48" style="enable-background:new 0 0 185.8 48;" xml:space="preserve"> <style type="text/css"> .st0{fill:#00539B;} .st1{fill:#00A94F;} </style> <g id="LogoMark"> </g> <g id="Kitware"> <g> <g> <path class="st0" d="M29,43.5c-0.6,0-1.1,0-1.7,0c-16.5-4.4-16.8-27.3-1-31.7c1.2,0,2.4,0,3.6,0C13.5,16.2,13.2,39.1,29,43.5z"></path> </g> <g> <path class="st0" d="M32.7,44.9c-0.6,0-1.1,0-1.7,0c-16.5-4.4-16.8-27.3-1-31.7c1.2,0,2.4,0,3.6,0C17.2,17.6,16.9,40.5,32.7,44.9 z"></path> </g> <g> <path class="st0" d="M36.4,46.2c-0.6,0-1.1,0-1.7,0c-16.5-4.4-16.8-27.3-1-31.7c1.2,0,2.4,0,3.6,0C20.9,19,20.6,41.8,36.4,46.2z"></path> </g> <path class="st1" d="M7.9,45.3c-0.3-0.3-0.6-0.5-0.8-0.8c3.1-12.1,1.3-23.7-4.2-32.3c1-1,2-2,3.1-2.9C11.3,20,12.1,33,7.9,45.3z"></path> <path class="st1" d="M9.1,46.5c-0.3-0.3-0.6-0.5-0.8-0.8c4.6-12.5,4.2-25.9-1.1-37.5c1-1,2-1.9,3.1-2.9 C15.4,18.9,14.9,33.7,9.1,46.5z"></path> <path class="st1" d="M10.3,47.6c-0.3-0.3-0.6-0.5-0.8-0.8c6.2-12.8,7.1-28.2,2-42.7c1-1,2-2,3.1-2.9 C19.4,17.8,17.7,34.5,10.3,47.6z"></path> <path class="st0" d="M51.7,16.1L49.3,27h0.1l11-10.9h7.7l-14,12.6l8.9,15.1h-6.6l-7.7-14.1l-3,14.1h-5.5l5.9-27.7H51.7z"></path> <path class="st0" d="M70.2,23.4h5.3l-4.4,20.4h-5.3L70.2,23.4z M72.1,14.6h5.3l-1.1,5.1H71L72.1,14.6z"></path> <path class="st0" d="M78.6,23.4h3.8l0.9-4.2l5.7-1.9l-1.3,6.1h4.8l-0.8,3.9h-4.8l-1.9,8.9c-0.1,0.5-0.2,1.2-0.2,2c0,1.2,0.8,2,2,2 c1,0,1.9-0.2,2.6-0.5l-0.9,4.1c-0.9,0.2-1.9,0.5-2.9,0.5c-3.6,0-6.1-1.4-6.1-5.3c0-1.6,0.3-3.1,0.7-4.8l1.5-6.9h-3.8L78.6,23.4z"></path> <path class="st0" d="M94.7,23.4h5.3l1.5,15.3h0.1l7.5-15.3h5.9l1.1,15.3h0.1l7.8-15.3h5.4l-11.3,20.4h-6l-1.2-15.6h-0.1l-7.4,15.6 h-6L94.7,23.4z"></path> <path class="st0" d="M139.9,40.7L139.9,40.7c-1.9,2.3-3.7,3.6-6.7,3.6c-3.7,0-6.3-2.1-6.3-5.8c0-6.7,7.5-7.3,12.5-7.3h1.9 c0.2-0.6,0.2-1.2,0.2-1.7c0-2.1-2.2-2.7-4.1-2.7c-2.3,0-4.6,0.6-6.7,1.6l0.8-4.2c2.3-0.8,4.6-1.2,6.9-1.2c4.1,0,7.9,1.5,7.9,6.3 c0,2.7-2,10.7-2.5,14.6h-4.5L139.9,40.7z M134.7,40.4c4,0,5.2-2.7,6-6h-1.9c-2.6,0-6.9,0.4-6.9,3.9 C132,39.7,133.3,40.4,134.7,40.4z"></path> <path class="st0" d="M151.6,26.1c0.2-0.9,0.3-1.8,0.5-2.7h5.1l-0.7,3.8h0.1c1-2.2,3.6-4.3,6-4.3c0.7,0,1.4,0,2,0.2l-1.1,5.2 c-0.6-0.2-1.3-0.3-2-0.3c-3.8,0-5.6,3.4-6.3,6.7l-1.9,9.2H148L151.6,26.1z"></path> <path class="st0" d="M168.5,35.2c0,3.8,2,5.2,5.7,5.2c2.2,0,4.3-0.6,6.3-1.5l-0.7,4.2c-2.1,0.6-4.3,1.1-6.5,1.1 c-5.9,0-9.8-2.9-9.8-8.9c0-6.3,4.9-12.4,11.6-12.4c5,0,8.4,2.6,8.4,7.8c0,1.5-0.2,3.1-0.5,4.6H168.5z M178.2,31.6 c0.1-0.5,0.1-0.9,0.1-1.4c0-2.2-1.1-3.4-3.4-3.4c-3.3,0-4.7,2-5.7,4.8H178.2z"></path> </g> </g> </svg>