<?xml version="1.0" encoding="UTF-8"?>
<svg width="180px" height="180px" viewBox="0 0 180 180" version="1.1" xmlns="http://www.w3.org/2000/svg" xmlns:xlink="http://www.w3.org/1999/xlink">
    <!-- Generator: Sketch 43.2 (39069) - http://www.bohemiancoding.com/sketch -->
    <title>layout-2d</title>
    <desc>Created with Sketch.</desc>
    <defs></defs>
    <g id="Page-1" stroke="none" stroke-width="1" fill="none" fill-rule="evenodd">
        <g id="layout-2d">
            <path d="M16,25.9983247 C16,20.4764024 20.4696675,16 25.9983247,16 L154.001675,16 C159.523598,16 164,20.4696675 164,25.9983247 L164,154.001675 C164,159.523598 159.530333,164 154.001675,164 L25.9983247,164 C20.4764024,164 16,159.530333 16,154.001675 L16,25.9983247 Z" id="background" stroke="#4A4A4A" stroke-width="4" fill="#D8D8D8"></path>
            <path d="M58.09375,107.558594 L76.4453125,107.558594 C78.2734466,107.558594 79.6679639,107.93359 80.6289062,108.683594 C81.5898486,109.433597 82.0703125,110.453119 82.0703125,111.742188 C82.0703125,112.890631 81.6894569,113.863277 80.9277344,114.660156 C80.1660118,115.457035 79.0117265,115.855469 77.4648438,115.855469 L51.5898438,115.855469 C49.8320225,115.855469 48.4609424,115.369145 47.4765625,114.396484 C46.4921826,113.423823 46,112.281257 46,110.96875 C46,110.124996 46.3164031,109.005866 46.9492188,107.611328 C47.5820344,106.21679 48.2734338,105.121098 49.0234375,104.324219 C52.1406406,101.089828 54.9531125,98.3183709 57.4609375,96.0097656 C59.9687625,93.7011603 61.7617134,92.1835974 62.8398438,91.4570312 C64.7617284,90.0976495 66.3613217,88.7324287 67.6386719,87.3613281 C68.916022,85.9902275 69.8886685,84.5839916 70.5566406,83.1425781 C71.2246127,81.7011647 71.5585938,80.2890694 71.5585938,78.90625 C71.5585938,77.4062425 71.2011754,76.064459 70.4863281,74.8808594 C69.7714808,73.6972597 68.7988343,72.777347 67.5683594,72.1210938 C66.3378845,71.4648405 64.996101,71.1367188 63.5429688,71.1367188 C60.4726409,71.1367188 58.0586025,72.4843615 56.3007812,75.1796875 C56.0664051,75.5312518 55.6738309,76.4921796 55.1230469,78.0625 C54.5722629,79.6328204 53.9511753,80.8398395 53.2597656,81.6835938 C52.5683559,82.527348 51.5546942,82.9492188 50.21875,82.9492188 C49.0468691,82.9492188 48.0742226,82.5625039 47.3007812,81.7890625 C46.5273399,81.0156211 46.140625,79.9609442 46.140625,78.625 C46.140625,77.0078044 46.5039026,75.3203213 47.2304688,73.5625 C47.9570349,71.8046787 49.0410084,70.2109446 50.4824219,68.78125 C51.9238353,67.3515554 53.7519421,66.19727 55.9667969,65.3183594 C58.1816517,64.4394487 60.7773289,64 63.7539062,64 C67.3398617,64 70.3984248,64.5624944 72.9296875,65.6875 C74.5703207,66.4375037 76.0117125,67.4687434 77.2539062,68.78125 C78.4961,70.0937566 79.4628872,71.6113195 80.1542969,73.3339844 C80.8457066,75.0566492 81.1914062,76.8437407 81.1914062,78.6953125 C81.1914062,81.601577 80.4707103,84.2441287 79.0292969,86.6230469 C77.5878834,89.001965 76.117195,90.8652276 74.6171875,92.2128906 C73.11718,93.5605536 70.6035333,95.6757668 67.0761719,98.5585938 C63.5488105,101.441421 61.1289128,103.67968 59.8164062,105.273438 C59.2539034,105.906253 58.6796904,106.667964 58.09375,107.558594 Z M96.90625,64.3164062 L110.511719,64.3164062 C114.050799,64.3164062 117.085925,64.644528 119.617188,65.3007812 C122.14845,65.9570345 124.445302,67.187491 126.507812,68.9921875 C131.875027,73.5859605 134.558594,80.5702656 134.558594,89.9453125 C134.558594,93.039078 134.289065,95.8632685 133.75,98.4179688 C133.210935,100.972669 132.378912,103.27538 131.253906,105.326172 C130.128901,107.376963 128.687509,109.210929 126.929688,110.828125 C125.546868,112.070319 124.035164,113.066402 122.394531,113.816406 C120.753898,114.56641 118.990244,115.093748 117.103516,115.398438 C115.216787,115.703127 113.089856,115.855469 110.722656,115.855469 L97.1171875,115.855469 C95.2187405,115.855469 93.7890673,115.568362 92.828125,114.994141 C91.8671827,114.419919 91.2402358,113.611333 90.9472656,112.568359 C90.6542954,111.525385 90.5078125,110.171883 90.5078125,108.507812 L90.5078125,70.7148438 C90.5078125,68.4648325 91.0117137,66.8359425 92.0195312,65.828125 C93.0273488,64.8203075 94.6562387,64.3164062 96.90625,64.3164062 Z M100.949219,72.578125 L100.949219,107.558594 L108.859375,107.558594 C110.593759,107.558594 111.95312,107.511719 112.9375,107.417969 C113.92188,107.324218 114.941401,107.089846 115.996094,106.714844 C117.050787,106.339842 117.96484,105.812503 118.738281,105.132812 C122.230486,102.179673 123.976562,97.0937861 123.976562,89.875 C123.976562,84.7890371 123.208992,80.9804814 121.673828,78.4492188 C120.138664,75.9179561 118.246105,74.3066441 115.996094,73.6152344 C113.746082,72.9238247 111.02736,72.578125 107.839844,72.578125 L100.949219,72.578125 Z" id="2D" fill="#4A4A4A"></path>
        </g>
    </g>
</svg>