<?xml version="1.0" encoding="UTF-8"?>
<svg width="180px" height="180px" viewBox="0 0 180 180" version="1.1" xmlns="http://www.w3.org/2000/svg" xmlns:xlink="http://www.w3.org/1999/xlink">
    <!-- Generator: Sketch 43.2 (39069) - http://www.bohemiancoding.com/sketch -->
    <title>layout-quad</title>
    <desc>Created with Sketch.</desc>
    <defs></defs>
    <g id="Page-1" stroke="none" stroke-width="1" fill="none" fill-rule="evenodd">
        <g id="layout-quad">
            <g id="X" transform="translate(16.000000, 16.000000)">
                <path d="M0,9.99209717 C0,4.47361428 4.48530063,0 9.99209717,0 L60.0079028,0 C65.5263857,0 70,4.48530063 70,9.99209717 L70,60.0079028 C70,65.5263857 65.5146994,70 60.0079028,70 L9.99209717,70 C4.47361428,70 0,65.5146994 0,60.0079028 L0,9.99209717 Z" id="background" stroke="#4A4A4A" stroke-width="4" fill="#D8D8D8"></path>
                <path d="M19.28125,48.6875 L29.53125,33.71875 L20.90625,20.40625 C20.0937459,19.1145769 19.484377,18.005213 19.078125,17.078125 C18.671873,16.151037 18.46875,15.2604209 18.46875,14.40625 C18.46875,13.5312456 18.8593711,12.7447952 19.640625,12.046875 C20.4218789,11.3489548 21.3749944,11 22.5,11 C23.7916731,11 24.7968714,11.3802045 25.515625,12.140625 C26.2343786,12.9010455 27.2291603,14.3124897 28.5,16.375 L35.375,27.5 L42.71875,16.375 C43.3229197,15.4374953 43.8385395,14.63542 44.265625,13.96875 C44.6927105,13.30208 45.1041647,12.7500022 45.5,12.3125 C45.8958353,11.8749978 46.3385392,11.5468761 46.828125,11.328125 C47.3177108,11.1093739 47.8854134,11 48.53125,11 C49.6979225,11 50.651038,11.3489548 51.390625,12.046875 C52.130212,12.7447952 52.5,13.5729119 52.5,14.53125 C52.5,15.9270903 51.6979247,17.8229047 50.09375,20.21875 L41.0625,33.71875 L50.78125,48.6875 C51.6562544,50.0000066 52.2916647,51.0885373 52.6875,51.953125 C53.0833353,52.8177127 53.28125,53.6354128 53.28125,54.40625 C53.28125,55.1354203 53.1041684,55.8020803 52.75,56.40625 C52.3958316,57.0104197 51.8958366,57.4895816 51.25,57.84375 C50.6041634,58.1979184 49.8750041,58.375 49.0625,58.375 C48.1874956,58.375 47.4479197,58.1927102 46.84375,57.828125 C46.2395803,57.4635398 45.7500019,57.0104194 45.375,56.46875 C44.9999981,55.9270806 44.3020884,54.8750078 43.28125,53.3125 L35.21875,40.625 L26.65625,53.6875 C25.98958,54.7291719 25.5156264,55.4583313 25.234375,55.875 C24.9531236,56.2916687 24.6145853,56.6979147 24.21875,57.09375 C23.8229147,57.4895853 23.3541694,57.8020822 22.8125,58.03125 C22.2708306,58.2604178 21.6354203,58.375 20.90625,58.375 C19.7812444,58.375 18.848962,58.0312534 18.109375,57.34375 C17.369788,56.6562466 17,55.6562566 17,54.34375 C17,52.8020756 17.7604091,50.9166778 19.28125,48.6875 Z" fill="#4A4A4A"></path>
            </g>
            <g id="Y" transform="translate(16.000000, 94.000000)">
                <path d="M0,9.99209717 C0,4.47361428 4.48530063,0 9.99209717,0 L60.0079028,0 C65.5263857,0 70,4.48530063 70,9.99209717 L70,60.0079028 C70,65.5263857 65.5146994,70 60.0079028,70 L9.99209717,70 C4.47361428,70 0,65.5146994 0,60.0079028 L0,9.99209717 Z" id="background" stroke="#4A4A4A" stroke-width="4" fill="#D8D8D8"></path>
                <path d="M29.875,52.71875 L29.875,38.1875 L18.6875,20.84375 C17.7083284,19.2812422 17.015627,18.0625044 16.609375,17.1875 C16.203123,16.3124956 16,15.5520866 16,14.90625 C16,13.8437447 16.4114542,12.9270872 17.234375,12.15625 C18.0572958,11.3854128 19.0729106,11 20.28125,11 C21.5520897,11 22.5156217,11.3593714 23.171875,12.078125 C23.8281283,12.7968786 24.8124934,14.2291559 26.125,16.375 L34.6875,30.28125 L43.34375,16.375 C43.8645859,15.5208291 44.3020816,14.8020863 44.65625,14.21875 C45.0104184,13.6354137 45.4010395,13.0885442 45.828125,12.578125 C46.2552105,12.0677058 46.7291641,11.6770847 47.25,11.40625 C47.7708359,11.1354153 48.4062463,11 49.15625,11 C50.3229225,11 51.2968711,11.3802045 52.078125,12.140625 C52.8593789,12.9010455 53.25,13.781245 53.25,14.78125 C53.25,15.5937541 53.0520853,16.4062459 52.65625,17.21875 C52.2604147,18.0312541 51.5833381,19.1562428 50.625,20.59375 L39.15625,38.1875 L39.15625,52.71875 C39.15625,54.6145928 38.7187544,56.0312453 37.84375,56.96875 C36.9687456,57.9062547 35.8541734,58.375 34.5,58.375 C33.1249931,58.375 32.0104209,57.911463 31.15625,56.984375 C30.3020791,56.057287 29.875,54.6354262 29.875,52.71875 Z" fill="#4A4A4A"></path>
            </g>
            <g id="V" transform="translate(94.000000, 16.000000)">
                <path d="M0,9.99209717 C0,4.47361428 4.48530063,0 9.99209717,0 L60.0079028,0 C65.5263857,0 70,4.48530063 70,9.99209717 L70,60.0079028 C70,65.5263857 65.5146994,70 60.0079028,70 L9.99209717,70 C4.47361428,70 0,65.5146994 0,60.0079028 L0,9.99209717 Z" id="background" stroke="#4A4A4A" stroke-width="4" fill="#D8D8D8"></path>
                <path d="M24.875,17.09375 L35.25,47.8125 L45.65625,16.875 C46.1979194,15.2499919 46.6041653,14.1197948 46.875,13.484375 C47.1458347,12.8489552 47.5937469,12.2760442 48.21875,11.765625 C48.8437531,11.2552058 49.6979113,11 50.78125,11 C51.5729206,11 52.3072883,11.1979147 52.984375,11.59375 C53.6614617,11.9895853 54.1927064,12.5156217 54.578125,13.171875 C54.9635436,13.8281283 55.15625,14.48958 55.15625,15.15625 C55.15625,15.6145856 55.0937506,16.1093723 54.96875,16.640625 C54.8437494,17.1718777 54.6875009,17.6927058 54.5,18.203125 C54.3124991,18.7135442 54.1250009,19.2395806 53.9375,19.78125 L42.84375,49.71875 C42.4479147,50.8645891 42.0520853,51.9531198 41.65625,52.984375 C41.2604147,54.0156302 40.8020859,54.9218711 40.28125,55.703125 C39.7604141,56.4843789 39.0677127,57.1249975 38.203125,57.625 C37.3385373,58.1250025 36.2812563,58.375 35.03125,58.375 C33.7812437,58.375 32.7239627,58.1302108 31.859375,57.640625 C30.9947873,57.1510392 30.2968777,56.5052123 29.765625,55.703125 C29.2343723,54.9010377 28.7708353,53.9895884 28.375,52.96875 C27.9791647,51.9479116 27.5833353,50.8645891 27.1875,49.71875 L16.28125,20.03125 C16.0937491,19.4895806 15.9010427,18.9583359 15.703125,18.4375 C15.5052073,17.9166641 15.3385423,17.3541697 15.203125,16.75 C15.0677077,16.1458303 15,15.6354187 15,15.21875 C15,14.1562447 15.4270791,13.1875044 16.28125,12.3125 C17.1354209,11.4374956 18.2083269,11 19.5,11 C21.0833413,11 22.2031217,11.4843702 22.859375,12.453125 C23.5156283,13.4218798 24.1874966,14.9687394 24.875,17.09375 Z" fill="#4A4A4A"></path>
            </g>
            <g id="Z" transform="translate(94.000000, 94.000000)">
                <path d="M0,9.99209717 C0,4.47361428 4.48530063,0 9.99209717,0 L60.0079028,0 C65.5263857,0 70,4.48530063 70,9.99209717 L70,60.0079028 C70,65.5263857 65.5146994,70 60.0079028,70 L9.99209717,70 C4.47361428,70 0,65.5146994 0,60.0079028 L0,9.99209717 Z" id="background" stroke="#4A4A4A" stroke-width="4" fill="#D8D8D8"></path>
                <path d="M18.40625,47.125 L41.9375,18.96875 L21.71875,18.96875 C20.3020762,18.96875 19.2343786,18.6562531 18.515625,18.03125 C17.7968714,17.4062469 17.4375,16.5833384 17.4375,15.5625 C17.4375,14.4999947 17.7968714,13.6406283 18.515625,12.984375 C19.2343786,12.3281217 20.3020762,12 21.71875,12 L47.78125,12 C51.1562669,12 52.84375,13.5729009 52.84375,16.71875 C52.84375,18.2187575 52.5625028,19.4166622 52,20.3125 C51.4374972,21.2083378 50.3020919,22.65624 48.59375,24.65625 L26.59375,50.84375 L50.84375,50.84375 C52.2812572,50.84375 53.3541631,51.140622 54.0625,51.734375 C54.7708369,52.328128 55.125,53.1562447 55.125,54.21875 C55.125,55.3229222 54.7708369,56.1979134 54.0625,56.84375 C53.3541631,57.4895866 52.2812572,57.8125 50.84375,57.8125 L21.09375,57.8125 C19.0729066,57.8125 17.5520884,57.3593795 16.53125,56.453125 C15.5104116,55.5468705 15,54.3333409 15,52.8125 C15,52.2916641 15.0833325,51.8125022 15.25,51.375 C15.4166675,50.9374978 15.6406236,50.5260436 15.921875,50.140625 C16.2031264,49.7552064 16.5937475,49.265628 17.09375,48.671875 C17.5937525,48.078122 18.0312481,47.5625022 18.40625,47.125 Z" fill="#4A4A4A"></path>
            </g>
        </g>
    </g>
</svg>