<?xml version="1.0" encoding="UTF-8"?>
<svg width="180px" height="180px" viewBox="0 0 180 180" version="1.1" xmlns="http://www.w3.org/2000/svg" xmlns:xlink="http://www.w3.org/1999/xlink">
    <!-- Generator: Sketch 43.2 (39069) - http://www.bohemiancoding.com/sketch -->
    <title>layout-3d</title>
    <desc>Created with Sketch.</desc>
    <defs></defs>
    <g id="Page-1" stroke="none" stroke-width="1" fill="none" fill-rule="evenodd">
        <g id="layout-3d">
            <path d="M16,25.9983247 C16,20.4764024 20.4696675,16 25.9983247,16 L154.001675,16 C159.523598,16 164,20.4696675 164,25.9983247 L164,154.001675 C164,159.523598 159.530333,164 154.001675,164 L25.9983247,164 C20.4764024,164 16,159.530333 16,154.001675 L16,25.9983247 Z" id="background" stroke="#4A4A4A" stroke-width="4" fill="#D8D8D8"></path>
            <path d="M61.2070312,84.671875 C63.363292,84.671875 65.2206953,84.0390688 66.7792969,82.7734375 C68.3378984,81.5078062 69.1171875,79.6914181 69.1171875,77.3242188 C69.1171875,75.5195222 68.4961,73.9668034 67.2539062,72.6660156 C66.0117125,71.3652279 64.335948,70.7148438 62.2265625,70.7148438 C60.7968679,70.7148438 59.6191453,70.9140605 58.6933594,71.3125 C57.7675735,71.7109395 57.0351589,72.238278 56.4960938,72.8945312 C55.9570286,73.5507845 55.447268,74.3945261 54.9667969,75.4257812 C54.4863257,76.4570364 54.046877,77.4296829 53.6484375,78.34375 C53.4140613,78.83594 52.9921905,79.2226548 52.3828125,79.5039062 C51.7734345,79.7851577 51.0703165,79.9257812 50.2734375,79.9257812 C49.3359328,79.9257812 48.4746133,79.5449257 47.6894531,78.7832031 C46.9042929,78.0214806 46.5117188,77.0078188 46.5117188,75.7421875 C46.5117188,74.5234314 46.8808557,73.2402411 47.6191406,71.8925781 C48.3574256,70.5449151 49.4355398,69.2617248 50.8535156,68.0429688 C52.2714915,66.8242127 54.0351457,65.8457068 56.1445312,65.1074219 C58.2539168,64.3691369 60.609362,64 63.2109375,64 C65.4843864,64 67.5585844,64.3105438 69.4335938,64.9316406 C71.3086031,65.5527375 72.9374931,66.4492129 74.3203125,67.6210938 C75.7031319,68.7929746 76.7460902,70.152336 77.4492188,71.6992188 C78.1523473,73.2461015 78.5039062,74.9101473 78.5039062,76.6914062 C78.5039062,79.035168 77.9941457,81.0449135 76.9746094,82.7207031 C75.955073,84.3964928 74.4961032,86.031242 72.5976562,87.625 C74.4257904,88.6093799 75.9667906,89.7343687 77.2207031,91 C78.4746156,92.2656313 79.4179656,93.6660079 80.0507812,95.2011719 C80.6835969,96.7363358 81,98.3945223 81,100.175781 C81,102.308604 80.5722699,104.371084 79.7167969,106.363281 C78.8613238,108.355479 77.6015708,110.130852 75.9375,111.689453 C74.2734292,113.248055 72.2988396,114.466792 70.0136719,115.345703 C67.7285042,116.224614 65.2031388,116.664062 62.4375,116.664062 C59.6249859,116.664062 57.1054799,116.160161 54.8789062,115.152344 C52.6523326,114.144526 50.8183666,112.884773 49.3769531,111.373047 C47.9355397,109.861321 46.8457068,108.296883 46.1074219,106.679688 C45.3691369,105.062492 45,103.726568 45,102.671875 C45,101.312493 45.4394487,100.216801 46.3183594,99.3847656 C47.19727,98.5527302 48.2929622,98.1367188 49.6054688,98.1367188 C50.261722,98.1367188 50.8945282,98.3300762 51.5039062,98.7167969 C52.1132843,99.1035176 52.5117178,99.5664036 52.6992188,100.105469 C53.9179748,103.363298 55.2246024,105.783195 56.6191406,107.365234 C58.0136788,108.947274 59.9765498,109.738281 62.5078125,109.738281 C63.9609448,109.738281 65.3613214,109.380863 66.7089844,108.666016 C68.0566474,107.951168 69.1699175,106.890632 70.0488281,105.484375 C70.9277388,104.078118 71.3671875,102.449228 71.3671875,100.597656 C71.3671875,97.855455 70.617195,95.7050859 69.1171875,94.1464844 C67.61718,92.5878828 65.5312634,91.8085938 62.859375,91.8085938 C62.3906227,91.8085938 61.6640674,91.8554683 60.6796875,91.9492188 C59.6953076,92.0429692 59.0625014,92.0898438 58.78125,92.0898438 C57.4921811,92.0898438 56.4960973,91.7675813 55.7929688,91.1230469 C55.0898402,90.4785124 54.7382812,89.582037 54.7382812,88.4335938 C54.7382812,87.3085881 55.160152,86.4003941 56.0039062,85.7089844 C56.8476605,85.0175747 58.1015542,84.671875 59.765625,84.671875 L61.2070312,84.671875 Z M96.3632812,64.2460938 L109.96875,64.2460938 C113.50783,64.2460938 116.542956,64.5742155 119.074219,65.2304688 C121.605481,65.886722 123.902333,67.1171785 125.964844,68.921875 C131.332058,73.515648 134.015625,80.4999531 134.015625,89.875 C134.015625,92.9687655 133.746096,95.792956 133.207031,98.3476562 C132.667966,100.902357 131.835943,103.205068 130.710938,105.255859 C129.585932,107.306651 128.14454,109.140617 126.386719,110.757812 C125.003899,112.000006 123.492196,112.99609 121.851562,113.746094 C120.210929,114.496098 118.447275,115.023436 116.560547,115.328125 C114.673819,115.632814 112.546887,115.785156 110.179688,115.785156 L96.5742188,115.785156 C94.6757718,115.785156 93.2460986,115.49805 92.2851562,114.923828 C91.3242139,114.349607 90.6972671,113.541021 90.4042969,112.498047 C90.1113267,111.455073 89.9648438,110.101571 89.9648438,108.4375 L89.9648438,70.6445312 C89.9648438,68.39452 90.468745,66.76563 91.4765625,65.7578125 C92.48438,64.749995 94.11327,64.2460938 96.3632812,64.2460938 Z M100.40625,72.5078125 L100.40625,107.488281 L108.316406,107.488281 C110.05079,107.488281 111.410151,107.441407 112.394531,107.347656 C113.378911,107.253906 114.398432,107.019533 115.453125,106.644531 C116.507818,106.269529 117.421871,105.742191 118.195312,105.0625 C121.687517,102.10936 123.433594,97.0234736 123.433594,89.8046875 C123.433594,84.7187246 122.666023,80.9101689 121.130859,78.3789062 C119.595695,75.8476436 117.703136,74.2363316 115.453125,73.5449219 C113.203114,72.8535122 110.484391,72.5078125 107.296875,72.5078125 L100.40625,72.5078125 Z" id="3D" fill="#4A4A4A"></path>
        </g>
    </g>
</svg>