<?xml version="1.0" encoding="UTF-8"?>
<svg width="180px" height="180px" viewBox="0 0 180 180" version="1.1" xmlns="http://www.w3.org/2000/svg" xmlns:xlink="http://www.w3.org/1999/xlink">
    <!-- Generator: Sketch 43.2 (39069) - http://www.bohemiancoding.com/sketch -->
    <title>layout-split</title>
    <desc>Created with Sketch.</desc>
    <defs></defs>
    <g id="Page-1" stroke="none" stroke-width="1" fill="none" fill-rule="evenodd">
        <g id="layout-split">
            <path d="M94,25.9983247 C94,20.4764024 98.4853006,16 103.992097,16 L154.007903,16 C159.526386,16 164,20.4696675 164,25.9983247 L164,154.001675 C164,159.523598 159.514699,164 154.007903,164 L103.992097,164 C98.4736143,164 94,159.530333 94,154.001675 L94,25.9983247 Z" id="Path" stroke="#4A4A4A" stroke-width="4" fill="#D8D8D8" stroke-linecap="square"></path>
            <path d="M16,25.9983247 C16,20.4764024 20.4853006,16 25.9920972,16 L76.0079028,16 C81.5263857,16 86,20.4696675 86,25.9983247 L86,154.001675 C86,159.523598 81.5146994,164 76.0079028,164 L25.9920972,164 C20.4736143,164 16,159.530333 16,154.001675 L16,25.9983247 Z" id="background" stroke="#4A4A4A" stroke-width="4" fill="#D8D8D8" stroke-linecap="square"></path>
            <path d="M35.28125,103.6875 L45.53125,88.71875 L36.90625,75.40625 C36.0937459,74.1145769 35.484377,73.005213 35.078125,72.078125 C34.671873,71.151037 34.46875,70.2604209 34.46875,69.40625 C34.46875,68.5312456 34.8593711,67.7447952 35.640625,67.046875 C36.4218789,66.3489548 37.3749944,66 38.5,66 C39.7916731,66 40.7968714,66.3802045 41.515625,67.140625 C42.2343786,67.9010455 43.2291603,69.3124897 44.5,71.375 L51.375,82.5 L58.71875,71.375 C59.3229197,70.4374953 59.8385395,69.63542 60.265625,68.96875 C60.6927105,68.30208 61.1041647,67.7500022 61.5,67.3125 C61.8958353,66.8749978 62.3385392,66.5468761 62.828125,66.328125 C63.3177108,66.1093739 63.8854134,66 64.53125,66 C65.6979225,66 66.651038,66.3489548 67.390625,67.046875 C68.130212,67.7447952 68.5,68.5729119 68.5,69.53125 C68.5,70.9270903 67.6979247,72.8229047 66.09375,75.21875 L57.0625,88.71875 L66.78125,103.6875 C67.6562544,105.000007 68.2916647,106.088537 68.6875,106.953125 C69.0833353,107.817713 69.28125,108.635413 69.28125,109.40625 C69.28125,110.13542 69.1041684,110.80208 68.75,111.40625 C68.3958316,112.01042 67.8958366,112.489582 67.25,112.84375 C66.6041634,113.197918 65.8750041,113.375 65.0625,113.375 C64.1874956,113.375 63.4479197,113.19271 62.84375,112.828125 C62.2395803,112.46354 61.7500019,112.010419 61.375,111.46875 C60.9999981,110.927081 60.3020884,109.875008 59.28125,108.3125 L51.21875,95.625 L42.65625,108.6875 C41.98958,109.729172 41.5156264,110.458331 41.234375,110.875 C40.9531236,111.291669 40.6145853,111.697915 40.21875,112.09375 C39.8229147,112.489585 39.3541694,112.802082 38.8125,113.03125 C38.2708306,113.260418 37.6354203,113.375 36.90625,113.375 C35.7812444,113.375 34.848962,113.031253 34.109375,112.34375 C33.369788,111.656247 33,110.656257 33,109.34375 C33,107.802076 33.7604091,105.916678 35.28125,103.6875 Z" id="X" fill="#4A4A4A"></path>
            <path d="M118.875,72.09375 L129.25,102.8125 L139.65625,71.875 C140.197919,70.2499919 140.604165,69.1197948 140.875,68.484375 C141.145835,67.8489552 141.593747,67.2760442 142.21875,66.765625 C142.843753,66.2552058 143.697911,66 144.78125,66 C145.572921,66 146.307288,66.1979147 146.984375,66.59375 C147.661462,66.9895853 148.192706,67.5156217 148.578125,68.171875 C148.963544,68.8281283 149.15625,69.48958 149.15625,70.15625 C149.15625,70.6145856 149.093751,71.1093723 148.96875,71.640625 C148.843749,72.1718777 148.687501,72.6927058 148.5,73.203125 C148.312499,73.7135442 148.125001,74.2395806 147.9375,74.78125 L136.84375,104.71875 C136.447915,105.864589 136.052085,106.95312 135.65625,107.984375 C135.260415,109.01563 134.802086,109.921871 134.28125,110.703125 C133.760414,111.484379 133.067713,112.124998 132.203125,112.625 C131.338537,113.125002 130.281256,113.375 129.03125,113.375 C127.781244,113.375 126.723963,113.130211 125.859375,112.640625 C124.994787,112.151039 124.296878,111.505212 123.765625,110.703125 C123.234372,109.901038 122.770835,108.989588 122.375,107.96875 C121.979165,106.947912 121.583335,105.864589 121.1875,104.71875 L110.28125,75.03125 C110.093749,74.4895806 109.901043,73.9583359 109.703125,73.4375 C109.505207,72.9166641 109.338542,72.3541697 109.203125,71.75 C109.067708,71.1458303 109,70.6354187 109,70.21875 C109,69.1562447 109.427079,68.1875044 110.28125,67.3125 C111.135421,66.4374956 112.208327,66 113.5,66 C115.083341,66 116.203122,66.4843702 116.859375,67.453125 C117.515628,68.4218798 118.187497,69.9687394 118.875,72.09375 Z" id="V" fill="#4A4A4A"></path>
        </g>
    </g>
</svg>