<?xml version="1.0" encoding="UTF-8"?>
<svg width="500px" height="160px" viewBox="0 0 500 160" version="1.1" xmlns="http://www.w3.org/2000/svg" xmlns:xlink="http://www.w3.org/1999/xlink">
    <!-- Generator: Sketch 43.2 (39069) - http://www.bohemiancoding.com/sketch -->
    <title>logo</title>
    <desc>Created with Sketch.</desc>
    <defs>
        <polygon id="path-1" points="34.287257 110 9.97252962e-16 110 28.212743 -3.98901185e-15 62.5 -3.98901185e-15"></polygon>
        <polygon id="path-2" points="83.037257 110 48.75 110 76.962743 -3.98901185e-15 111.25 -3.98901185e-15"></polygon>
        <polygon id="path-3" points="131.787257 110 97.5 110 125.712743 -3.98901185e-15 160 -3.98901185e-15"></polygon>
    </defs>
    <g id="Page-1" stroke="none" stroke-width="1" fill="none" fill-rule="evenodd">
        <g id="logo">
            <g id="Group" transform="translate(20.000000, 25.000000)">
                <g id="Shape">
                    <use fill="#AC262C" fill-rule="evenodd" xlink:href="#path-1"></use>
                    <path stroke="#000000" stroke-width="2" d="M33.5113695,109 L1.28884653,109 L28.9886305,1 L61.2111535,1 L33.5113695,109 Z"></path>
                </g>
                <g id="Shape">
                    <use fill="#258E44" fill-rule="evenodd" xlink:href="#path-2"></use>
                    <path stroke="#000000" stroke-width="2" d="M82.2613695,109 L50.0388465,109 L77.7386305,1 L109.961153,1 L82.2613695,109 Z"></path>
                </g>
                <g id="Shape">
                    <use fill="#1C4678" fill-rule="evenodd" xlink:href="#path-3"></use>
                    <path stroke="#000000" stroke-width="2" d="M131.011369,109 L98.7888465,109 L126.488631,1 L158.711153,1 L131.011369,109 Z"></path>
                </g>
            </g>
            <path d="M218.912,27.368 C224.24536,27.368 228.330652,28.4773222 231.168,30.696 C234.005348,32.9146778 235.424,36.0079802 235.424,39.976 C235.424,42.6640134 234.954671,44.9893235 234.016,46.952 C233.077329,48.9146765 231.733342,50.525327 229.984,51.784 C228.234658,53.042673 226.133346,53.9706637 223.68,54.568 C221.226654,55.1653363 218.485348,55.464 215.456,55.464 L209.632,55.464 L206.56,72.68 L196,72.68 L204,27.368 L218.912,27.368 Z M215.648,47.016 C218.421347,47.016 220.629325,46.578671 222.272,45.704 C223.914675,44.829329 224.736,43.2826778 224.736,41.064 C224.736,40.0826618 224.554668,39.2613366 224.192,38.6 C223.829332,37.9386634 223.328003,37.4160019 222.688,37.032 C222.047997,36.6479981 221.280004,36.3813341 220.384,36.232 C219.487996,36.0826659 218.506672,36.008 217.44,36.008 L213.088,36.008 L211.104,47.016 L215.648,47.016 Z M263.968,50.152 C263.968,50.7493363 263.936,51.3893299 263.872,52.072 C263.808,52.7546701 263.712001,53.4159968 263.584,54.056 L261.408,66.472 C261.194666,67.5813389 261.034667,68.7119942 260.928,69.864 C260.821333,71.0160058 260.768,71.954663 260.768,72.68 L251.68,72.68 C251.68,72.2106643 251.701333,71.6666698 251.744,71.048 C251.786667,70.4293302 251.850666,69.8426694 251.936,69.288 L251.808,69.288 C249.461322,72.0613472 246.218687,73.448 242.08,73.448 C240.970661,73.448 239.829339,73.3093347 238.656,73.032 C237.482661,72.7546653 236.416005,72.2853366 235.456,71.624 C234.495995,70.9626634 233.717336,70.0880054 233.12,69 C232.522664,67.9119946 232.224,66.5786746 232.224,65 C232.224,62.4399872 232.863994,60.3493414 234.144,58.728 C235.424006,57.1066586 237.098656,55.8480045 239.168,54.952 C241.237344,54.0559955 243.583987,53.437335 246.208,53.096 C248.832013,52.754665 251.466653,52.584 254.112,52.584 C254.197334,52.1999981 254.24,51.9013344 254.24,51.688 L254.24,51.112 C254.24,49.8746605 253.802671,48.9680029 252.928,48.392 C252.053329,47.8159971 250.826675,47.528 249.248,47.528 C247.797326,47.528 246.336007,47.8053306 244.864,48.36 C243.391993,48.9146694 242.058673,49.6399955 240.864,50.536 L236.64,44.648 C238.56001,43.1119923 240.767988,41.9280042 243.264,41.096 C245.760012,40.2639958 248.223988,39.848 250.656,39.848 C252.57601,39.848 254.346659,40.0506646 255.968,40.456 C257.589341,40.8613354 258.986661,41.4906624 260.16,42.344 C261.333339,43.1973376 262.26133,44.2639936 262.944,45.544 C263.62667,46.8240064 263.968,48.359991 263.968,50.152 Z M252.64,58.728 C251.359994,58.728 250.058673,58.7813328 248.736,58.888 C247.413327,58.9946672 246.229339,59.218665 245.184,59.56 C244.138661,59.901335 243.27467,60.3706637 242.592,60.968 C241.90933,61.5653363 241.568,62.3546618 241.568,63.336 C241.568,64.6160064 242.005329,65.4799978 242.88,65.928 C243.754671,66.3760022 244.725328,66.6 245.792,66.6 C247.754676,66.6 249.397327,65.9920061 250.72,64.776 C252.042673,63.5599939 252.874665,62.056009 253.216,60.264 L253.536,58.728 L252.64,58.728 Z M282.848,45.48 C283.872005,43.8586586 285.09866,42.5360051 286.528,41.512 C287.95734,40.4879949 289.674657,39.976 291.68,39.976 C292.064002,39.976 292.458665,39.9973331 292.864,40.04 C293.269335,40.0826669 293.599999,40.1466662 293.856,40.232 L292.192,49.32 C291.722664,49.1919994 291.274669,49.1066669 290.848,49.064 C290.421331,49.0213331 290.016002,49 289.632,49 C288.138659,49 286.880005,49.2559974 285.856,49.768 C284.831995,50.2800026 283.989337,50.9093296 283.328,51.656 C282.666663,52.4026704 282.176002,53.2026624 281.856,54.056 C281.535998,54.9093376 281.312001,55.6559968 281.184,56.296 L278.304,72.68 L268.064,72.68 L272.608,47.4 C272.778668,46.5893293 272.959999,45.5440064 273.152,44.264 C273.344001,42.9839936 273.482666,41.8320051 273.568,40.808 L283.296,40.808 C283.296,41.0213344 283.274667,41.3306646 283.232,41.736 C283.189333,42.1413354 283.136,42.5679978 283.072,43.016 L282.72,45.48 L282.848,45.48 Z M323.232,50.152 C323.232,50.7493363 323.2,51.3893299 323.136,52.072 C323.072,52.7546701 322.976001,53.4159968 322.848,54.056 L320.672,66.472 C320.458666,67.5813389 320.298667,68.7119942 320.192,69.864 C320.085333,71.0160058 320.032,71.954663 320.032,72.68 L310.944,72.68 C310.944,72.2106643 310.965333,71.6666698 311.008,71.048 C311.050667,70.4293302 311.114666,69.8426694 311.2,69.288 L311.072,69.288 C308.725322,72.0613472 305.482687,73.448 301.344,73.448 C300.234661,73.448 299.093339,73.3093347 297.92,73.032 C296.746661,72.7546653 295.680005,72.2853366 294.72,71.624 C293.759995,70.9626634 292.981336,70.0880054 292.384,69 C291.786664,67.9119946 291.488,66.5786746 291.488,65 C291.488,62.4399872 292.127994,60.3493414 293.408,58.728 C294.688006,57.1066586 296.362656,55.8480045 298.432,54.952 C300.501344,54.0559955 302.847987,53.437335 305.472,53.096 C308.096013,52.754665 310.730653,52.584 313.376,52.584 C313.461334,52.1999981 313.504,51.9013344 313.504,51.688 L313.504,51.112 C313.504,49.8746605 313.066671,48.9680029 312.192,48.392 C311.317329,47.8159971 310.090675,47.528 308.512,47.528 C307.061326,47.528 305.600007,47.8053306 304.128,48.36 C302.655993,48.9146694 301.322673,49.6399955 300.128,50.536 L295.904,44.648 C297.82401,43.1119923 300.031988,41.9280042 302.528,41.096 C305.024012,40.2639958 307.487988,39.848 309.92,39.848 C311.84001,39.848 313.610659,40.0506646 315.232,40.456 C316.853341,40.8613354 318.250661,41.4906624 319.424,42.344 C320.597339,43.1973376 321.52533,44.2639936 322.208,45.544 C322.89067,46.8240064 323.232,48.359991 323.232,50.152 Z M311.904,58.728 C310.623994,58.728 309.322673,58.7813328 308,58.888 C306.677327,58.9946672 305.493339,59.218665 304.448,59.56 C303.402661,59.901335 302.53867,60.3706637 301.856,60.968 C301.17333,61.5653363 300.832,62.3546618 300.832,63.336 C300.832,64.6160064 301.269329,65.4799978 302.144,65.928 C303.018671,66.3760022 303.989328,66.6 305.056,66.6 C307.018676,66.6 308.661327,65.9920061 309.984,64.776 C311.306673,63.5599939 312.138665,62.056009 312.48,60.264 L312.8,58.728 L311.904,58.728 Z M348.896,72.68 L337.696,72.68 L330.784,27.368 L342.112,27.368 L345.632,59.752 L345.888,59.752 L363.552,27.368 L375.904,27.368 L348.896,72.68 Z M370.656,72.68 L376.224,40.808 L386.528,40.808 L380.832,72.68 L370.656,72.68 Z M388.704,30.12 C388.704,30.9733376 388.554668,31.762663 388.256,32.488 C387.957332,33.213337 387.541336,33.8639971 387.008,34.44 C386.474664,35.0160029 385.845337,35.4639984 385.12,35.784 C384.394663,36.1040016 383.605338,36.264 382.752,36.264 C381.130659,36.264 379.797339,35.7840048 378.752,34.824 C377.706661,33.8639952 377.184,32.6373408 377.184,31.144 C377.184,29.3946579 377.770661,27.9333392 378.944,26.76 C380.117339,25.5866608 381.557325,25 383.264,25 C384.842675,25 386.143995,25.4906618 387.168,26.472 C388.192005,27.4533382 388.704,28.6693261 388.704,30.12 Z M399.648,59.496 C399.605333,59.6666675 399.584,59.8586656 399.584,60.072 C399.584,60.9680045 399.786665,61.7679965 400.192,62.472 C400.597335,63.1760035 401.130663,63.7733309 401.792,64.264 C402.453337,64.7546691 403.199996,65.1279987 404.032,65.384 C404.864004,65.6400013 405.727996,65.768 406.624,65.768 C408.245341,65.768 409.67466,65.4693363 410.912,64.872 C412.14934,64.2746637 413.258662,63.4640051 414.24,62.44 L420.704,67.496 C418.65599,69.6720109 416.373346,71.2399952 413.856,72.2 C411.338654,73.1600048 408.629348,73.64 405.728,73.64 C403.509322,73.64 401.450676,73.3306698 399.552,72.712 C397.653324,72.0933302 396.000007,71.1760061 394.592,69.96 C393.183993,68.7439939 392.074671,67.240009 391.264,65.448 C390.453329,63.655991 390.048,61.6080115 390.048,59.304 C390.048,56.5733197 390.527995,54.0240118 391.488,51.656 C392.448005,49.2879882 393.770658,47.2293421 395.456,45.48 C397.141342,43.7306579 399.157322,42.3546717 401.504,41.352 C403.850678,40.3493283 406.431986,39.848 409.248,39.848 C411.338677,39.848 413.247991,40.1466637 414.976,40.744 C416.704009,41.3413363 418.18666,42.2053277 419.424,43.336 C420.66134,44.4666723 421.62133,45.8639917 422.304,47.528 C422.98667,49.1920083 423.328,51.1119891 423.328,53.288 C423.328,54.0560038 423.253334,55.0266608 423.104,56.2 C422.954666,57.3733392 422.752001,58.4719949 422.496,59.496 L399.648,59.496 Z M414.176,53.224 C414.218667,53.0106656 414.24,52.7973344 414.24,52.584 L414.24,51.944 C414.24,50.535993 413.738672,49.3626714 412.736,48.424 C411.733328,47.4853286 410.293343,47.016 408.416,47.016 C407.263994,47.016 406.229338,47.2186646 405.312,47.624 C404.394662,48.0293354 403.59467,48.5306637 402.912,49.128 C402.22933,49.7253363 401.674669,50.386663 401.248,51.112 C400.821331,51.837337 400.522668,52.5413299 400.352,53.224 L414.176,53.224 Z M466.016,72.68 L455.712,72.68 L453.344,52.648 L453.216,52.648 L442.848,72.68 L432.544,72.68 L428.192,40.808 L438.88,40.808 L440.416,61.16 L440.608,61.16 L450.464,40.808 L460.768,40.808 L462.688,61.16 L462.88,61.16 L472.672,40.808 L483.424,40.808 L466.016,72.68 Z" id="ParaView" fill="#4A4A4A"></path>
            <path d="M193.862159,117.2 C193.068731,120.933352 193.531153,123.933322 195.249439,126.2 C196.967726,128.466678 199.643505,129.6 203.276856,129.6 C204.310195,129.6 205.205917,129.541667 205.964048,129.425 C206.72218,129.308333 207.339157,129.150001 207.814997,128.95 L209.717091,120 L202.317091,120 L203.485975,114.5 L217.585975,114.5 L213.611768,133.2 C212.533837,133.566668 210.855407,133.974998 208.576426,134.425 C206.297445,134.875002 204.057983,135.1 201.857972,135.1 C195.724608,135.1 191.337398,133.550016 188.696211,130.45 C186.055023,127.349985 185.354306,122.883363 186.594038,117.05 C187.777096,111.483306 190.44551,107.083349 194.59936,103.85 C198.75321,100.61665 203.780074,99 209.680103,99 C211.846781,99 213.741654,99.1416653 215.364781,99.425 C216.987907,99.7083348 218.370072,100.066665 219.511317,100.5 L217.868049,106.35 C216.628891,105.749997 215.267978,105.291668 213.78527,104.975 C212.302562,104.658332 210.727894,104.5 209.061219,104.5 C205.294534,104.5 202.021621,105.666655 199.242384,108 C196.463146,110.333345 194.669756,113.399981 193.862159,117.2 Z M228.205152,97 L234.905152,97 L226.935487,134.5 L220.235487,134.5 L228.205152,97 Z M251.418891,123.05 L251.514527,122.6 L248.464527,122.6 C245.98368,122.666667 244.085565,123.049996 242.770124,123.75 C241.454684,124.450003 240.648208,125.499993 240.350672,126.9 C240.131063,127.933338 240.30927,128.741664 240.885301,129.325 C241.461331,129.908336 242.449335,130.2 243.849342,130.2 C245.816018,130.2 247.464769,129.500007 248.795643,128.1 C250.126517,126.699993 251.000925,125.016677 251.418891,123.05 Z M250.228089,130.3 C248.764703,132.166676 247.237187,133.43333 245.645497,134.1 C244.053806,134.76667 242.557979,135.1 241.157972,135.1 C238.457959,135.1 236.448934,134.358341 235.130839,132.875 C233.812744,131.391659 233.380396,129.583344 233.833784,127.45 C234.450108,124.549986 235.97598,122.350008 238.411445,120.85 C240.84691,119.349992 244.131271,118.6 248.264625,118.6 L252.364625,118.6 L252.481513,118.05 C252.871143,116.216657 252.637323,114.925004 251.780045,114.175 C250.922768,113.424996 249.577478,113.05 247.744135,113.05 C246.344128,113.05 244.879137,113.316664 243.349116,113.85 C241.819095,114.383336 240.462008,115.083329 239.277815,115.95 L240.321082,110.1 C241.286932,109.633331 242.764116,109.191669 244.752677,108.775 C246.741239,108.358331 248.435498,108.15 249.835505,108.15 C253.735525,108.15 256.356102,109.033324 257.697315,110.8 C259.038529,112.566676 259.291165,115.416647 258.455232,119.35 L256.988813,126.25 C256.507089,128.516678 256.152774,130.458325 255.925858,132.075 C255.698943,133.691675 255.602153,134.5 255.635487,134.5 L249.635487,134.5 C249.56882,134.5 249.588934,134.091671 249.695829,133.275 C249.802725,132.458329 249.980143,131.466673 250.228089,130.3 Z M285.435487,134.5 L278.735487,134.5 L282.008363,119.1 C282.390909,117.299991 282.331881,115.891672 281.831278,114.875 C281.330676,113.858328 280.380385,113.35 278.980378,113.35 C277.013702,113.35 275.360887,114.108326 274.021885,115.625 C272.682883,117.141674 271.701693,119.366652 271.078285,122.3 L268.485487,134.5 L261.785487,134.5 L267.25799,108.75 L273.70799,108.75 L272.92165,112.45 C273.983769,111.21666 275.309926,110.191671 276.900163,109.375 C278.490399,108.558329 280.285495,108.15 282.285505,108.15 C285.152186,108.15 287.134123,109.058324 288.231376,110.875 C289.328629,112.691676 289.523043,115.26665 288.814625,118.6 L285.435487,134.5 Z M311.028755,128.65 L310.120497,134.1 C309.677989,134.300001 308.915283,134.516665 307.832356,134.75 C306.749428,134.983335 305.424647,135.1 303.857972,135.1 C299.657951,135.1 296.648115,133.891679 294.828373,131.475 C293.008631,129.058321 292.548613,125.733355 293.448304,121.5 C294.277153,117.599981 296.107213,114.400013 298.938539,111.9 C301.769864,109.399987 305.035487,108.15 308.735505,108.15 C309.968845,108.15 311.152893,108.224999 312.287687,108.375 C313.422481,108.525001 314.361529,108.733332 315.104859,109 L313.32848,114.3 C312.997232,114.133332 312.448076,113.933335 311.680995,113.7 C310.913913,113.466666 310.063716,113.35 309.130378,113.35 C306.963701,113.35 305.106097,114.091659 303.557511,115.575 C302.008926,117.058341 300.96545,119.066654 300.427052,121.6 C299.88157,124.16668 300.051206,126.191659 300.935966,127.675 C301.820726,129.158341 303.396421,129.9 305.663099,129.9 C306.863105,129.9 307.991952,129.725002 309.049674,129.375 C310.107397,129.024998 310.767083,128.783334 311.028755,128.65 Z M335.493647,133.05 C334.225709,133.683336 332.852794,134.183332 331.374861,134.55 C329.896928,134.916669 328.307981,135.1 326.607972,135.1 C322.141283,135.1 318.96426,133.933345 317.076808,131.6 C315.189355,129.266655 314.70965,125.916688 315.637678,121.55 C316.494864,117.516647 318.267113,114.275012 320.954478,111.825 C323.641843,109.374988 326.802154,108.15 330.435505,108.15 C334.76886,108.15 337.605675,109.466654 338.946034,112.1 C340.286393,114.733346 340.41463,118.599975 339.33075,123.7 L321.48075,123.7 C321.424455,125.533343 321.710252,126.933329 322.338148,127.9 C323.312282,129.433341 325.049329,130.2 327.549342,130.2 C329.349351,130.2 331.155279,129.858337 332.967179,129.175 C334.77908,128.491663 336.010852,127.950002 336.662531,127.55 L335.493647,133.05 Z M322.408363,119.1 L333.958363,119.1 C334.269245,117.166657 334.061262,115.675005 333.334409,114.625 C332.607556,113.574995 331.394144,113.05 329.694135,113.05 C327.760792,113.05 326.084749,113.799993 324.665956,115.3 C323.800928,116.233338 323.048405,117.499992 322.408363,119.1 Z" id="Glance" fill="#4A4A4A"></path>
        </g>
    </g>
</svg>