<?xml version="1.0" encoding="UTF-8"?>
<svg width="500px" height="160px" viewBox="0 0 500 160" version="1.1" xmlns="http://www.w3.org/2000/svg" xmlns:xlink="http://www.w3.org/1999/xlink">
    <!-- Generator: Sketch 43.2 (39069) - http://www.bohemiancoding.com/sketch -->
    <title>logo</title>
    <desc>Created with Sketch.</desc>
    <defs>
        <polygon id="path-1" points="34.287257 110 9.97252962e-16 110 28.212743 -3.98901185e-15 62.5 -3.98901185e-15"></polygon>
        <polygon id="path-2" points="83.037257 110 48.75 110 76.962743 -3.98901185e-15 111.25 -3.98901185e-15"></polygon>
        <polygon id="path-3" points="131.787257 110 97.5 110 125.712743 -3.98901185e-15 160 -3.98901185e-15"></polygon>
    </defs>
    <g id="Page-1" stroke="none" stroke-width="1" fill="none" fill-rule="evenodd">
        <g id="logo">
            <g id="Group" transform="translate(20.000000, 25.000000)">
                <g id="Shape">
                    <use fill="#AC262C" fill-rule="evenodd" xlink:href="#path-1"></use>
                    <path stroke="#000000" stroke-width="2" d="M33.5113695,109 L1.28884653,109 L28.9886305,1 L61.2111535,1 L33.5113695,109 Z"></path>
                </g>
                <g id="Shape">
                    <use fill="#258E44" fill-rule="evenodd" xlink:href="#path-2"></use>
                    <path stroke="#000000" stroke-width="2" d="M82.2613695,109 L50.0388465,109 L77.7386305,1 L109.961153,1 L82.2613695,109 Z"></path>
                </g>
                <g id="Shape">
                    <use fill="#1C4678" fill-rule="evenodd" xlink:href="#path-3"></use>
                    <path stroke="#000000" stroke-width="2" d="M131.011369,109 L98.7888465,109 L126.488631,1 L158.711153,1 L131.011369,109 Z"></path>
                </g>
            </g>
            <path d="M216.912,33.368 C222.24536,33.368 226.330652,34.4773222 229.168,36.696 C232.005348,38.9146778 233.424,42.0079802 233.424,45.976 C233.424,48.6640134 232.954671,50.9893235 232.016,52.952 C231.077329,54.9146765 229.733342,56.525327 227.984,57.784 C226.234658,59.042673 224.133346,59.9706637 221.68,60.568 C219.226654,61.1653363 216.485348,61.464 213.456,61.464 L207.632,61.464 L204.56,78.68 L194,78.68 L202,33.368 L216.912,33.368 Z M213.648,53.016 C216.421347,53.016 218.629325,52.578671 220.272,51.704 C221.914675,50.829329 222.736,49.2826778 222.736,47.064 C222.736,46.0826618 222.554668,45.2613366 222.192,44.6 C221.829332,43.9386634 221.328003,43.4160019 220.688,43.032 C220.047997,42.6479981 219.280004,42.3813341 218.384,42.232 C217.487996,42.0826659 216.506672,42.008 215.44,42.008 L211.088,42.008 L209.104,53.016 L213.648,53.016 Z M261.968,56.152 C261.968,56.7493363 261.936,57.3893299 261.872,58.072 C261.808,58.7546701 261.712001,59.4159968 261.584,60.056 L259.408,72.472 C259.194666,73.5813389 259.034667,74.7119942 258.928,75.864 C258.821333,77.0160058 258.768,77.954663 258.768,78.68 L249.68,78.68 C249.68,78.2106643 249.701333,77.6666698 249.744,77.048 C249.786667,76.4293302 249.850666,75.8426694 249.936,75.288 L249.808,75.288 C247.461322,78.0613472 244.218687,79.448 240.08,79.448 C238.970661,79.448 237.829339,79.3093347 236.656,79.032 C235.482661,78.7546653 234.416005,78.2853366 233.456,77.624 C232.495995,76.9626634 231.717336,76.0880054 231.12,75 C230.522664,73.9119946 230.224,72.5786746 230.224,71 C230.224,68.4399872 230.863994,66.3493414 232.144,64.728 C233.424006,63.1066586 235.098656,61.8480045 237.168,60.952 C239.237344,60.0559955 241.583987,59.437335 244.208,59.096 C246.832013,58.754665 249.466653,58.584 252.112,58.584 C252.197334,58.1999981 252.24,57.9013344 252.24,57.688 L252.24,57.112 C252.24,55.8746605 251.802671,54.9680029 250.928,54.392 C250.053329,53.8159971 248.826675,53.528 247.248,53.528 C245.797326,53.528 244.336007,53.8053306 242.864,54.36 C241.391993,54.9146694 240.058673,55.6399955 238.864,56.536 L234.64,50.648 C236.56001,49.1119923 238.767988,47.9280042 241.264,47.096 C243.760012,46.2639958 246.223988,45.848 248.656,45.848 C250.57601,45.848 252.346659,46.0506646 253.968,46.456 C255.589341,46.8613354 256.986661,47.4906624 258.16,48.344 C259.333339,49.1973376 260.26133,50.2639936 260.944,51.544 C261.62667,52.8240064 261.968,54.359991 261.968,56.152 Z M250.64,64.728 C249.359994,64.728 248.058673,64.7813328 246.736,64.888 C245.413327,64.9946672 244.229339,65.218665 243.184,65.56 C242.138661,65.901335 241.27467,66.3706637 240.592,66.968 C239.90933,67.5653363 239.568,68.3546618 239.568,69.336 C239.568,70.6160064 240.005329,71.4799978 240.88,71.928 C241.754671,72.3760022 242.725328,72.6 243.792,72.6 C245.754676,72.6 247.397327,71.9920061 248.72,70.776 C250.042673,69.5599939 250.874665,68.056009 251.216,66.264 L251.536,64.728 L250.64,64.728 Z M280.848,51.48 C281.872005,49.8586586 283.09866,48.5360051 284.528,47.512 C285.95734,46.4879949 287.674657,45.976 289.68,45.976 C290.064002,45.976 290.458665,45.9973331 290.864,46.04 C291.269335,46.0826669 291.599999,46.1466662 291.856,46.232 L290.192,55.32 C289.722664,55.1919994 289.274669,55.1066669 288.848,55.064 C288.421331,55.0213331 288.016002,55 287.632,55 C286.138659,55 284.880005,55.2559974 283.856,55.768 C282.831995,56.2800026 281.989337,56.9093296 281.328,57.656 C280.666663,58.4026704 280.176002,59.2026624 279.856,60.056 C279.535998,60.9093376 279.312001,61.6559968 279.184,62.296 L276.304,78.68 L266.064,78.68 L270.608,53.4 C270.778668,52.5893293 270.959999,51.5440064 271.152,50.264 C271.344001,48.9839936 271.482666,47.8320051 271.568,46.808 L281.296,46.808 C281.296,47.0213344 281.274667,47.3306646 281.232,47.736 C281.189333,48.1413354 281.136,48.5679978 281.072,49.016 L280.72,51.48 L280.848,51.48 Z M321.232,56.152 C321.232,56.7493363 321.2,57.3893299 321.136,58.072 C321.072,58.7546701 320.976001,59.4159968 320.848,60.056 L318.672,72.472 C318.458666,73.5813389 318.298667,74.7119942 318.192,75.864 C318.085333,77.0160058 318.032,77.954663 318.032,78.68 L308.944,78.68 C308.944,78.2106643 308.965333,77.6666698 309.008,77.048 C309.050667,76.4293302 309.114666,75.8426694 309.2,75.288 L309.072,75.288 C306.725322,78.0613472 303.482687,79.448 299.344,79.448 C298.234661,79.448 297.093339,79.3093347 295.92,79.032 C294.746661,78.7546653 293.680005,78.2853366 292.72,77.624 C291.759995,76.9626634 290.981336,76.0880054 290.384,75 C289.786664,73.9119946 289.488,72.5786746 289.488,71 C289.488,68.4399872 290.127994,66.3493414 291.408,64.728 C292.688006,63.1066586 294.362656,61.8480045 296.432,60.952 C298.501344,60.0559955 300.847987,59.437335 303.472,59.096 C306.096013,58.754665 308.730653,58.584 311.376,58.584 C311.461334,58.1999981 311.504,57.9013344 311.504,57.688 L311.504,57.112 C311.504,55.8746605 311.066671,54.9680029 310.192,54.392 C309.317329,53.8159971 308.090675,53.528 306.512,53.528 C305.061326,53.528 303.600007,53.8053306 302.128,54.36 C300.655993,54.9146694 299.322673,55.6399955 298.128,56.536 L293.904,50.648 C295.82401,49.1119923 298.031988,47.9280042 300.528,47.096 C303.024012,46.2639958 305.487988,45.848 307.92,45.848 C309.84001,45.848 311.610659,46.0506646 313.232,46.456 C314.853341,46.8613354 316.250661,47.4906624 317.424,48.344 C318.597339,49.1973376 319.52533,50.2639936 320.208,51.544 C320.89067,52.8240064 321.232,54.359991 321.232,56.152 Z M309.904,64.728 C308.623994,64.728 307.322673,64.7813328 306,64.888 C304.677327,64.9946672 303.493339,65.218665 302.448,65.56 C301.402661,65.901335 300.53867,66.3706637 299.856,66.968 C299.17333,67.5653363 298.832,68.3546618 298.832,69.336 C298.832,70.6160064 299.269329,71.4799978 300.144,71.928 C301.018671,72.3760022 301.989328,72.6 303.056,72.6 C305.018676,72.6 306.661327,71.9920061 307.984,70.776 C309.306673,69.5599939 310.138665,68.056009 310.48,66.264 L310.8,64.728 L309.904,64.728 Z M346.896,78.68 L335.696,78.68 L328.784,33.368 L340.112,33.368 L343.632,65.752 L343.888,65.752 L361.552,33.368 L373.904,33.368 L346.896,78.68 Z M368.656,78.68 L374.224,46.808 L384.528,46.808 L378.832,78.68 L368.656,78.68 Z M386.704,36.12 C386.704,36.9733376 386.554668,37.762663 386.256,38.488 C385.957332,39.213337 385.541336,39.8639971 385.008,40.44 C384.474664,41.0160029 383.845337,41.4639984 383.12,41.784 C382.394663,42.1040016 381.605338,42.264 380.752,42.264 C379.130659,42.264 377.797339,41.7840048 376.752,40.824 C375.706661,39.8639952 375.184,38.6373408 375.184,37.144 C375.184,35.3946579 375.770661,33.9333392 376.944,32.76 C378.117339,31.5866608 379.557325,31 381.264,31 C382.842675,31 384.143995,31.4906618 385.168,32.472 C386.192005,33.4533382 386.704,34.6693261 386.704,36.12 Z M397.648,65.496 C397.605333,65.6666675 397.584,65.8586656 397.584,66.072 C397.584,66.9680045 397.786665,67.7679965 398.192,68.472 C398.597335,69.1760035 399.130663,69.7733309 399.792,70.264 C400.453337,70.7546691 401.199996,71.1279987 402.032,71.384 C402.864004,71.6400013 403.727996,71.768 404.624,71.768 C406.245341,71.768 407.67466,71.4693363 408.912,70.872 C410.14934,70.2746637 411.258662,69.4640051 412.24,68.44 L418.704,73.496 C416.65599,75.6720109 414.373346,77.2399952 411.856,78.2 C409.338654,79.1600048 406.629348,79.64 403.728,79.64 C401.509322,79.64 399.450676,79.3306698 397.552,78.712 C395.653324,78.0933302 394.000007,77.1760061 392.592,75.96 C391.183993,74.7439939 390.074671,73.240009 389.264,71.448 C388.453329,69.655991 388.048,67.6080115 388.048,65.304 C388.048,62.5733197 388.527995,60.0240118 389.488,57.656 C390.448005,55.2879882 391.770658,53.2293421 393.456,51.48 C395.141342,49.7306579 397.157322,48.3546717 399.504,47.352 C401.850678,46.3493283 404.431986,45.848 407.248,45.848 C409.338677,45.848 411.247991,46.1466637 412.976,46.744 C414.704009,47.3413363 416.18666,48.2053277 417.424,49.336 C418.66134,50.4666723 419.62133,51.8639917 420.304,53.528 C420.98667,55.1920083 421.328,57.1119891 421.328,59.288 C421.328,60.0560038 421.253334,61.0266608 421.104,62.2 C420.954666,63.3733392 420.752001,64.4719949 420.496,65.496 L397.648,65.496 Z M412.176,59.224 C412.218667,59.0106656 412.24,58.7973344 412.24,58.584 L412.24,57.944 C412.24,56.535993 411.738672,55.3626714 410.736,54.424 C409.733328,53.4853286 408.293343,53.016 406.416,53.016 C405.263994,53.016 404.229338,53.2186646 403.312,53.624 C402.394662,54.0293354 401.59467,54.5306637 400.912,55.128 C400.22933,55.7253363 399.674669,56.386663 399.248,57.112 C398.821331,57.837337 398.522668,58.5413299 398.352,59.224 L412.176,59.224 Z M464.016,78.68 L453.712,78.68 L451.344,58.648 L451.216,58.648 L440.848,78.68 L430.544,78.68 L426.192,46.808 L436.88,46.808 L438.416,67.16 L438.608,67.16 L448.464,46.808 L458.768,46.808 L460.688,67.16 L460.88,67.16 L470.672,46.808 L481.424,46.808 L464.016,78.68 Z" id="ParaView" fill="#4A4A4A"></path>
            <path d="M241.936,115.264 L260.176,115.264 L259.648,118.288 L238,118.288 L244,84.304 L264.4,84.304 L263.872,87.328 L246.88,87.328 L244.816,99.136 L261.04,99.136 L260.512,102.064 L244.288,102.064 L241.936,115.264 Z M279.04,118.288 L274.24,108.736 L265.264,118.288 L261.28,118.288 L272.8,106.432 L267.184,95.824 L270.64,95.824 L275.008,104.656 L283.216,95.824 L287.104,95.824 L276.448,106.816 L282.784,118.288 L279.04,118.288 Z M295.216,99.472 C295.568002,98.8959971 296.031997,98.3520026 296.608,97.84 C297.184003,97.3279974 297.831996,96.8800019 298.552,96.496 C299.272004,96.1119981 300.047996,95.8080011 300.88,95.584 C301.712004,95.3599989 302.575996,95.248 303.472,95.248 C305.008008,95.248 306.391994,95.4799977 307.624,95.944 C308.856006,96.4080023 309.919996,97.0719957 310.816,97.936 C311.712004,98.8000043 312.399998,99.8239941 312.88,101.008 C313.360002,102.192006 313.6,103.503993 313.6,104.944 C313.6,106.86401 313.264003,108.671992 312.592,110.368 C311.919997,112.064008 311.000006,113.535994 309.832,114.784 C308.663994,116.032006 307.272008,117.023996 305.656,117.76 C304.039992,118.496004 302.288009,118.864 300.4,118.864 C298.767992,118.864 297.240007,118.496004 295.816,117.76 C294.391993,117.023996 293.312004,115.936007 292.576,114.496 L292.48,114.496 L289.744,129.808 L286.528,129.808 L292.576,95.824 L295.792,95.824 L295.12,99.472 L295.216,99.472 Z M310.24,105.136 C310.24,104.143995 310.088002,103.208004 309.784,102.328 C309.479998,101.447996 309.024003,100.680003 308.416,100.024 C307.807997,99.3679967 307.072004,98.8560018 306.208,98.488 C305.343996,98.1199982 304.336006,97.936 303.184,97.936 C301.775993,97.936 300.464006,98.2239971 299.248,98.8 C298.031994,99.3760029 296.976004,100.167995 296.08,101.176 C295.183996,102.184005 294.480003,103.351993 293.968,104.68 C293.455997,106.008007 293.2,107.407993 293.2,108.88 C293.2,109.936005 293.367998,110.903996 293.704,111.784 C294.040002,112.664004 294.527997,113.431997 295.168,114.088 C295.808003,114.744003 296.567996,115.247998 297.448,115.6 C298.328004,115.952002 299.327994,116.128 300.448,116.128 C301.920007,116.128 303.255994,115.840003 304.456,115.264 C305.656006,114.687997 306.687996,113.904005 307.552,112.912 C308.416004,111.919995 309.079998,110.760007 309.544,109.432 C310.008002,108.103993 310.24,106.672008 310.24,105.136 Z M321.952,118.288 L318.688,118.288 L325.072,82 L328.336,82 L321.952,118.288 Z M340.96,118.864 C339.455992,118.864 338.064006,118.624002 336.784,118.144 C335.503994,117.663998 334.408005,117.000004 333.496,116.152 C332.583995,115.303996 331.872003,114.280006 331.36,113.08 C330.847997,111.879994 330.592,110.560007 330.592,109.12 C330.592,107.231991 330.919997,105.448008 331.576,103.768 C332.232003,102.087992 333.151994,100.616006 334.336,99.352 C335.520006,98.0879937 336.927992,97.0880037 338.56,96.352 C340.192008,95.6159963 341.98399,95.248 343.936,95.248 C345.472008,95.248 346.871994,95.4799977 348.136,95.944 C349.400006,96.4080023 350.487995,97.0719957 351.4,97.936 C352.312005,98.8000043 353.023997,99.8239941 353.536,101.008 C354.048003,102.192006 354.304,103.503993 354.304,104.944 C354.304,106.86401 353.976003,108.671992 353.32,110.368 C352.663997,112.064008 351.744006,113.535994 350.56,114.784 C349.375994,116.032006 347.968008,117.023996 346.336,117.76 C344.703992,118.496004 342.91201,118.864 340.96,118.864 Z M350.944,105.136 C350.944,104.111995 350.784002,103.160004 350.464,102.28 C350.143998,101.399996 349.672003,100.640003 349.048,100 C348.423997,99.3599968 347.664004,98.8560018 346.768,98.488 C345.871996,98.1199982 344.864006,97.936 343.744,97.936 C342.335993,97.936 341.040006,98.231997 339.856,98.824 C338.671994,99.416003 337.648004,100.215995 336.784,101.224 C335.919996,102.232005 335.240002,103.399993 334.744,104.728 C334.247998,106.056007 334,107.455993 334,108.928 C334,109.952005 334.159998,110.903996 334.48,111.784 C334.800002,112.664004 335.271997,113.423997 335.896,114.064 C336.520003,114.704003 337.271996,115.207998 338.152,115.576 C339.032004,115.944002 340.031994,116.128 341.152,116.128 C342.592007,116.128 343.911994,115.832003 345.112,115.24 C346.312006,114.647997 347.343996,113.856005 348.208,112.864 C349.072004,111.871995 349.743998,110.712007 350.224,109.384 C350.704002,108.055993 350.944,106.640008 350.944,105.136 Z M362.368,100.768 C362.496001,100.159997 362.631999,99.3760048 362.776,98.416 C362.920001,97.4559952 363.024,96.5920038 363.088,95.824 L366.16,95.824 C366.096,96.432003 366.016,97.1039963 365.92,97.84 C365.824,98.5760037 365.728,99.1839976 365.632,99.664 L365.728,99.664 C366.560004,98.3519934 367.615994,97.2880041 368.896,96.472 C370.176006,95.6559959 371.615992,95.248 373.216,95.248 C373.632002,95.248 373.999998,95.2639998 374.32,95.296 C374.640002,95.3280002 374.975998,95.3919995 375.328,95.488 L374.56,98.56 C374.399999,98.4959997 374.104002,98.4320003 373.672,98.368 C373.239998,98.3039997 372.800002,98.272 372.352,98.272 C371.487996,98.272 370.640004,98.4319984 369.808,98.752 C368.975996,99.0720016 368.216003,99.5759966 367.528,100.264 C366.839997,100.952003 366.232003,101.831995 365.704,102.904 C365.175997,103.976005 364.784001,105.263992 364.528,106.768 L362.512,118.288 L359.296,118.288 L362.368,100.768 Z M378.688,107.92 C378.656,108.112001 378.632,108.295999 378.616,108.472 C378.6,108.648001 378.592,108.815999 378.592,108.976 C378.592,110.032005 378.775998,110.991996 379.144,111.856 C379.512002,112.720004 380.023997,113.471997 380.68,114.112 C381.336003,114.752003 382.103996,115.247998 382.984,115.6 C383.864004,115.952002 384.815995,116.128 385.84,116.128 C387.600009,116.128 389.135993,115.736004 390.448,114.952 C391.760007,114.167996 392.815996,113.248005 393.616,112.192 L395.632,114.112 C394.319993,115.680008 392.800009,116.863996 391.072,117.664 C389.343991,118.464004 387.50401,118.864 385.552,118.864 C384.111993,118.864 382.768006,118.640002 381.52,118.192 C380.271994,117.743998 379.192005,117.104004 378.28,116.272 C377.367995,115.439996 376.648003,114.408006 376.12,113.176 C375.591997,111.943994 375.328,110.544008 375.328,108.976 C375.328,107.151991 375.663997,105.408008 376.336,103.744 C377.008003,102.079992 377.927994,100.624006 379.096,99.376 C380.264006,98.1279938 381.639992,97.1280038 383.224,96.376 C384.808008,95.6239962 386.511991,95.248 388.336,95.248 C391.408015,95.248 393.735992,96.0639918 395.32,97.696 C396.904008,99.3280082 397.696,101.439987 397.696,104.032 C397.696,104.416002 397.664,104.999996 397.6,105.784 C397.536,106.568004 397.424001,107.279997 397.264,107.92 L378.688,107.92 Z M394.384,105.52 C394.416,105.263999 394.44,104.984002 394.456,104.68 C394.472,104.375998 394.48,104.096001 394.48,103.84 C394.48,102.111991 393.952005,100.696006 392.896,99.592 C391.839995,98.4879945 390.28801,97.936 388.24,97.936 C387.055994,97.936 385.960005,98.135998 384.952,98.536 C383.943995,98.936002 383.048004,99.4879965 382.264,100.192 C381.479996,100.896004 380.816003,101.703995 380.272,102.616 C379.727997,103.528005 379.344001,104.495995 379.12,105.52 L394.384,105.52 Z M405.664,100.768 C405.792001,100.159997 405.927999,99.3760048 406.072,98.416 C406.216001,97.4559952 406.32,96.5920038 406.384,95.824 L409.456,95.824 C409.392,96.432003 409.312,97.1039963 409.216,97.84 C409.12,98.5760037 409.024,99.1839976 408.928,99.664 L409.024,99.664 C409.856004,98.3519934 410.911994,97.2880041 412.192,96.472 C413.472006,95.6559959 414.911992,95.248 416.512,95.248 C416.928002,95.248 417.295998,95.2639998 417.616,95.296 C417.936002,95.3280002 418.271998,95.3919995 418.624,95.488 L417.856,98.56 C417.695999,98.4959997 417.400002,98.4320003 416.968,98.368 C416.535998,98.3039997 416.096002,98.272 415.648,98.272 C414.783996,98.272 413.936004,98.4319984 413.104,98.752 C412.271996,99.0720016 411.512003,99.5759966 410.824,100.264 C410.135997,100.952003 409.528003,101.831995 409,102.904 C408.471997,103.976005 408.080001,105.263992 407.824,106.768 L405.808,118.288 L402.592,118.288 L405.664,100.768 Z" id="Explorer" fill="#4A4A4A"></path>
        </g>
    </g>
</svg>