<?xml version="1.0" encoding="utf-8"?>
<!-- Generator: Adobe Illustrator 25.4.1, SVG Export Plug-In . SVG Version: 6.00 Build 0)  -->
<svg version="1.1" xmlns="http://www.w3.org/2000/svg" xmlns:xlink="http://www.w3.org/1999/xlink" x="0px" y="0px"
	 viewBox="0 0 792 244.2" style="enable-background:new 0 0 792 244.2;" xml:space="preserve">
<style type="text/css">
	.st0{display:none;}
	.st1{display:inline;}
	.st2{fill:#8C8985;}
	.st3{display:inline;fill:none;stroke:#DCE3EC;stroke-width:7.416;stroke-miterlimit:10;}
	.st4{fill:#C7C7C6;}
	.st5{fill:#3EAE2B;}
	.st6{fill:#0068C7;}
	.st7{display:inline;fill:none;stroke:#C7C7C6;stroke-width:13.176;stroke-miterlimit:10;}
	.st8{display:inline;fill:none;stroke:#091812;stroke-width:7.416;stroke-miterlimit:10;}
</style>
<g id="Template" class="st0">
	<g class="st1">
		<g>
			<g>
				<path class="st2" d="M515,78.1c-2.9,8.3-5.5,16.1-8.2,23.8c-6.6,18.9-13.3,37.8-19.7,56.8c-1.2,3.7-2.8,5.2-7,5
					c-8.3-0.4-8.3-0.1-11.1-8.1c-6.2-17.7-12.4-35.3-18.7-53c-0.4-1.2-1.1-2.4-1.9-4.1c-4.2,11.7-8.1,22.8-12,33.8
					c-3.2,9.1-6.6,18.2-9.7,27.4c-0.9,2.8-2.2,4-5.3,3.9c-9.5-0.2-9.4-0.1-12.6-9.2c-8.6-24.8-17.3-49.7-25.9-74.5
					c-0.2-0.5-0.3-1-0.5-1.7c4.4,0,8.6,0,13.1,0c7.6,22.2,15.2,44.4,23.2,67.6c2.5-7.1,4.6-13.2,6.7-19.4
					c5.1-14.9,10.3-29.9,15.3-44.9c0.9-2.6,2-3.7,5-3.6c9.7,0.2,9.6,0.1,12.7,9.1c6.1,18.2,12.4,36.5,18.6,54.7
					c0.3,1,0.8,1.9,1.6,3.6c2.4-7,4.7-13.3,6.8-19.6c5.1-14.8,10.2-29.6,15.1-44.5c0.8-2.4,1.8-3.5,4.5-3.3
					C508.1,78.3,511.2,78.1,515,78.1z"/>
				<path class="st2" d="M725.7,147.6c0.6,3.8,1.2,7.6,1.9,11.7c-16.8,6.3-33.6,8.7-50.5,1.6c-10.1-4.2-15.5-12.8-17.9-23.1
					c-2.9-12.8-2.7-25.6,1.3-38.2c3.8-12.1,12-19.6,24.4-22.1c8.7-1.8,17.6-1.5,25.9,1.9c12.7,5.1,18.2,15.4,19.3,28.4
					c0.5,5.9,0.1,11.9,0.1,18.3h-59.3c-0.8,15.9,8.2,26,23.6,26.5c5.3,0.2,10.7,0,15.9-0.9C715.3,150.8,720.3,149.1,725.7,147.6z
					 M670.8,114.6H718c0-20-9.2-26.5-23.8-26.5C679.6,88,670.2,95,670.8,114.6z"/>
				<path class="st2" d="M529.6,91.7c-0.2-0.2-0.3-0.3-0.4-0.4c-2.8-13.2-4-10.9,8.1-13.2c9.9-1.9,19.8-2.3,29.6,0.1
					c12.7,3.1,20.1,11.8,20.3,25.1c0.2,18,0.1,36,0,54c0,1.1-1,3-1.8,3.2c-16.3,4.5-32.8,7.2-49.4,1.6c-11-3.7-16-12.1-15.7-24.5
					c0.3-11.4,6.3-19.9,17.3-22.5c7.1-1.7,14.7-1.9,22.1-2.5c4.7-0.3,9.5-0.1,15.2-0.1c-0.6-5.2-0.6-10-1.7-14.5
					c-1.4-5.6-6.1-7.7-11.3-8.7c-10.1-1.8-20.1-0.7-30,1.9C531.1,91.4,530.3,91.6,529.6,91.7z M574.4,136.9c0-3.9,0.1-7.7-0.1-11.6
					c-0.1-1-1.4-2.9-2.1-2.8c-9.3,0.3-18.6,0.3-27.8,1.6c-7.5,1-11.3,7.1-11.2,14.8c0.2,7.8,3.8,12.2,11.5,14c9,2.1,18,0.7,26.9-0.8
					c1.6-0.3,2.8-1.8,2.7-3.4C574.3,144.7,574.4,140.8,574.4,136.9z"/>
				<path class="st2" d="M371.5,78v12.1h-34.1c0,2.3,0,4.3,0,6.2c0,13.9-0.1,27.7,0.2,41.6c0.2,9.4,5.9,15,15.3,14.6
					c6-0.2,12-1.8,18-2.8c0.8-0.1,1.5-0.3,2.4-0.5c0.6,3.3,1.3,6.4,1.7,9.5c0.1,0.9-0.6,2.5-1.2,2.7c-11.3,4-22.8,5.6-34.3,1
					c-9.8-3.9-13.9-12.2-14.6-22c-0.7-9.2-0.5-18.4-0.5-27.6c-0.1-17.6,0-35.2,0-52.8c0-1.6,0-3.1,0-4.9h13V78H371.5z"/>
				<path class="st2" d="M206.4,42.4c3.6,0,7-0.2,10.4,0.1c0.8,0.1,1.8,1.4,2.3,2.3c0.4,0.8,0.1,1.8,0.1,2.8c0,37,0,74,0,111
					c0,1.6,0,3.1,0,4.9h-12.8V42.4z"/>
				<path class="st2" d="M651.9,79c-0.8,3.9-1.5,7.6-2.2,10.9c-6.3-0.3-12.3-0.6-18.4-0.7c-2,0-4,0.3-5.9,0.6
					c-3.2,0.4-4.5,2-4.4,5.6c0.2,21.1,0.1,42.1,0.1,63.2c0,1.5,0,2.9,0,4.7h-12.6c-0.1-1.2-0.2-2.5-0.2-3.8
					c0-24.8,0.1-49.6-0.1-74.4c0-3.2,1.1-4.4,4-5.2c12.4-3.4,24.8-4.6,37.4-1.8C650.2,78.4,651,78.7,651.9,79z"/>
				<path class="st2" d="M278.6,163.6c-5.7,0-10.2,0.1-14.7-0.1c-1.1,0-2.5-0.8-3.3-1.7c-12.3-14.1-24.6-28.3-36.9-42.5
					c-0.2-0.2-0.2-0.5-0.4-1.1c5.6-6.4,11.4-13,17.1-19.6c5.3-6,10.5-12.1,16-18c1.1-1.2,3.2-2.2,4.8-2.3c4.2-0.3,8.4-0.1,13.7-0.1
					c-12.1,13.8-23.6,27-35.3,40.4L278.6,163.6z"/>
				<rect x="290.5" y="78.3" class="st2" width="12.3" height="85.1"/>
				<path class="st2" d="M304.9,48.7c0,4.7-3.6,8.2-8.4,8.1c-4.7,0-8.4-3.7-8.4-8.2c0-4.7,3.8-8.5,8.7-8.4
					C301.4,40.3,304.9,44,304.9,48.7z"/>
			</g>
		</g>
		<path class="st2" d="M175.6,176c-5.9,0-10.6,0.1-15.3-0.1c-1.2-0.1-2.6-0.9-3.4-1.8c-12.3-14.3-54.1-62.8-57.5-66.7
			c-0.1-0.2-0.1-0.4,0-0.5c1.7-1.9,12.4-14.1,17.9-20.5c5.6-6.4,39.7-45.3,45.4-51.5c1.1-1.2,3.2-2.1,4.8-2.2
			c4.4-0.3,9.3-0.1,14.7-0.1c-12.6,14.4-53.7,60.6-65.9,74.5C129.8,122.6,161.6,159.8,175.6,176z"/>
		<g>
			<g>
				<path class="st2" d="M93.9,101.9c16.2-18.6,51.9-59.4,60.9-69.7c-5.4,0-9.9-0.2-14.2,0.1c-1.7,0.1-3.7,1-4.8,2.2
					c-4.6,5-39.3,44.7-50.4,57.4C88.2,95.3,91,98.6,93.9,101.9z"/>
				<path class="st2" d="M80.5,86.3c13.2-15.1,40.6-46.5,47.3-54.1c-5.4,0-9.9-0.2-14.2,0.1c-1.7,0.1-3.7,1-4.8,2.2
					c-3,3.3-27,30.7-36.8,41.8C74.7,79.6,77.5,82.9,80.5,86.3z"/>
			</g>
		</g>
		<path class="st2" d="M71.8,118.9v20c13.7,16,27.8,32.3,30.4,35.3c0.8,0.9,2.2,1.7,3.4,1.8c4.7,0.2,9.4,0.1,15.3,0.1
			C115.8,170.2,90.6,140.8,71.8,118.9z"/>
		<path class="st2" d="M71.8,87.4v20c20.1,23.3,51.8,60,57.6,66.7c0.8,0.9,2.2,1.7,3.4,1.8c4.7,0.2,9.4,0.1,15.3,0.1
			C139,165.4,91.8,110.6,71.8,87.4z"/>
	</g>
	<polygon class="st3" points="1382.5,-88.5 1308.5,-88.5 1271.6,-47.1 1308.5,-5.6 1382.5,-5.6 1419.5,-47.1 	"/>
	<polygon class="st3" points="1505.7,-137.3 1431.7,-137.3 1394.7,-95.9 1431.7,-54.5 1505.7,-54.5 1542.6,-95.9 	"/>
	<polygon class="st3" points="1505.7,-39.7 1431.7,-39.7 1394.7,1.8 1431.7,43.2 1505.7,43.2 1542.6,1.8 	"/>
	<polygon class="st3" points="1629.2,-88.8 1555.2,-88.8 1518.2,-47.4 1555.2,-6 1629.2,-6 1666.1,-47.4 	"/>
	<polygon class="st3" points="1628.8,8.5 1554.8,8.5 1517.8,49.9 1554.8,91.3 1628.8,91.3 1665.8,49.9 	"/>
	<polygon class="st3" points="1752.3,-39.7 1678.4,-39.7 1641.4,1.8 1678.4,43.2 1752.3,43.2 1789.3,1.8 	"/>
	<polygon class="st3" points="1751.9,57.1 1678,57.1 1641,98.6 1678,140 1751.9,140 1788.9,98.6 	"/>
	<polygon class="st3" points="1876.2,9.2 1802.2,9.2 1765.3,50.7 1802.2,92.1 1876.2,92.1 1913.2,50.7 	"/>
	<polygon class="st3" points="1507.3,-234.6 1433.3,-234.6 1396.3,-193.2 1433.3,-151.8 1507.3,-151.8 1544.2,-193.2 	"/>
	<polygon class="st3" points="1630.4,-283.5 1556.4,-283.5 1519.5,-242 1556.4,-200.6 1630.4,-200.6 1667.4,-242 	"/>
	<polygon class="st3" points="1630.4,-186.2 1556.4,-186.2 1519.5,-144.7 1556.4,-103.3 1630.4,-103.3 1667.4,-144.7 	"/>
	<polygon class="st3" points="1753.9,-234.6 1679.9,-234.6 1643,-193.2 1679.9,-151.8 1753.9,-151.8 1790.9,-193.2 	"/>
	<polygon class="st3" points="1753.5,-136.9 1679.6,-136.9 1642.6,-95.5 1679.6,-54.1 1753.5,-54.1 1790.5,-95.5 	"/>
	<polygon class="st3" points="1877.1,-185.8 1803.1,-185.8 1766.1,-144.4 1803.1,-102.9 1877.1,-102.9 1914.1,-144.4 	"/>
	<polygon class="st3" points="1876.7,-89 1802.7,-89 1765.7,-47.6 1802.7,-6.1 1876.7,-6.1 1913.7,-47.6 	"/>
	<polygon class="st3" points="2001,-136.9 1927,-136.9 1890,-95.5 1927,-54.1 2001,-54.1 2038,-95.5 	"/>
	<polygon class="st3" points="1382.5,300 1308.5,300 1271.6,341.4 1308.5,382.9 1382.5,382.9 1419.5,341.4 	"/>
	<polygon class="st3" points="1505.7,251.2 1431.7,251.2 1394.7,292.6 1431.7,334 1505.7,334 1542.6,292.6 	"/>
	<polygon class="st3" points="1505.7,348.8 1431.7,348.8 1394.7,390.3 1431.7,431.7 1505.7,431.7 1542.6,390.3 	"/>
	<polygon class="st3" points="1629.2,300.4 1555.2,300.4 1518.2,341.9 1555.2,383.3 1629.2,383.3 1666.1,341.9 	"/>
	<polygon class="st3" points="1628.8,397.7 1554.8,397.7 1517.8,439.2 1554.8,480.6 1628.8,480.6 1665.8,439.2 	"/>
	<polygon class="st3" points="1752.3,348.8 1678.4,348.8 1641.4,390.3 1678.4,431.7 1752.3,431.7 1789.3,390.3 	"/>
	<polygon class="st3" points="1751.9,445.7 1678,445.7 1641,487.1 1678,528.5 1751.9,528.5 1788.9,487.1 	"/>
	<polygon class="st3" points="1876.2,397.7 1802.2,397.7 1765.3,439.2 1802.2,480.6 1876.2,480.6 1913.2,439.2 	"/>
	<polygon class="st3" points="1507.3,153.9 1433.3,153.9 1396.3,195.3 1433.3,236.7 1507.3,236.7 1544.2,195.3 	"/>
	<polygon class="st3" points="1630.4,105.8 1556.4,105.8 1519.5,147.2 1556.4,188.7 1630.4,188.7 1667.4,147.2 	"/>
	<polygon class="st3" points="1630.4,203.1 1556.4,203.1 1519.5,244.5 1556.4,286 1630.4,286 1667.4,244.5 	"/>
	<polygon class="st3" points="1753.9,153.9 1679.9,153.9 1643,195.3 1679.9,236.7 1753.9,236.7 1790.9,195.3 	"/>
	<polygon class="st3" points="1753.5,251.6 1679.6,251.6 1642.6,293 1679.6,334.5 1753.5,334.5 1790.5,293 	"/>
	<polygon class="st3" points="1876.5,105.4 1802.6,105.4 1765.6,146.8 1802.6,188.3 1876.5,188.3 1913.5,146.8 	"/>
	<polygon class="st3" points="1999.7,56.6 1925.7,56.6 1888.7,98 1925.7,139.4 1999.7,139.4 2036.7,98 	"/>
	<polygon class="st3" points="1999.7,-39 1925.7,-39 1888.7,2.5 1925.7,43.9 1999.7,43.9 2036.7,2.5 	"/>
	<polygon class="st3" points="1999.7,154.2 1925.7,154.2 1888.7,195.7 1925.7,237.1 1999.7,237.1 2036.7,195.7 	"/>
	<polygon class="st3" points="2123.2,105.4 2049.2,105.4 2012.2,146.8 2049.2,188.3 2123.2,188.3 2160.2,146.8 	"/>
	<polygon class="st3" points="2122.8,203.1 2048.9,203.1 2011.9,244.6 2048.9,286 2122.8,286 2159.8,244.6 	"/>
	<polygon class="st3" points="2246.4,154.2 2172.4,154.2 2135.4,195.7 2172.4,237.1 2246.4,237.1 2283.3,195.7 	"/>
	<polygon class="st3" points="2246,251 2172,251 2135,292.5 2172,333.9 2246,333.9 2282.9,292.5 	"/>
	<polygon class="st3" points="2124.4,8.1 2050.5,8.1 2013.5,49.5 2050.5,91 2124.4,91 2161.4,49.5 	"/>
	<polygon class="st3" points="2247.6,57 2173.6,57 2136.6,98.4 2173.6,139.8 2247.6,139.8 2284.6,98.4 	"/>
	<polygon class="st3" points="1877.1,202.7 1803.1,202.7 1766.1,244.1 1803.1,285.6 1877.1,285.6 1914.1,244.1 	"/>
	<polygon class="st3" points="1876.7,299.5 1802.7,299.5 1765.7,341 1802.7,382.4 1876.7,382.4 1913.7,341 	"/>
	<polygon class="st3" points="2001,251.6 1927,251.6 1890,293 1927,334.5 2001,334.5 2038,293 	"/>
	<g class="st1">
		<path class="st4" d="M2075.1-717.4l31.4,54.4l-31.4,54.4h-62.9l-31.4-54.4l31.4-54.4H2075.1 M2082.7-730.6h-78.1l-39,67.6l39,67.6
			h78.1l39-67.6L2082.7-730.6L2082.7-730.6z"/>
	</g>
	<g class="st1">
		<path class="st4" d="M2203.4-792.3l31.4,54.4l-31.4,54.4h-62.9l-31.4-54.4l31.4-54.4H2203.4 M2211-805.4H2133l-39,67.6l39,67.6
			h78.1l39-67.6L2211-805.4L2211-805.4z"/>
	</g>
	<g class="st1">
		<path class="st4" d="M2329.6-717.4L2361-663l-31.4,54.4h-62.9l-31.4-54.4l31.4-54.4H2329.6 M2337.2-730.6h-78.1l-39,67.6l39,67.6
			h78.1l39-67.6L2337.2-730.6L2337.2-730.6z"/>
	</g>
	<g class="st1">
		<path class="st4" d="M2457.9-792.3l31.4,54.4l-31.4,54.4h-62.9l-31.4-54.4l31.4-54.4H2457.9 M2465.5-805.4h-78.1l-39,67.6l39,67.6
			h78.1l39-67.6L2465.5-805.4L2465.5-805.4z"/>
	</g>
	<g class="st1">
		<path class="st4" d="M2584.1-717.4l31.4,54.4l-31.4,54.4h-62.9l-31.4-54.4l31.4-54.4H2584.1 M2591.7-730.6h-78.1l-39,67.6l39,67.6
			h78.1l39-67.6L2591.7-730.6L2591.7-730.6z"/>
	</g>
	<g class="st1">
		<path class="st4" d="M2712.4-792.3l31.4,54.4l-31.4,54.4h-62.9l-31.4-54.4l31.4-54.4H2712.4 M2720-805.4H2642l-39,67.6l39,67.6
			h78.1l39-67.6L2720-805.4L2720-805.4z"/>
	</g>
	<g class="st1">
		<path class="st4" d="M2073-569.8l31.4,54.4L2073-461h-62.9l-31.4-54.4l31.4-54.4H2073 M2080.6-583h-78.1l-39,67.6l39,67.6h78.1
			l39-67.6L2080.6-583L2080.6-583z"/>
	</g>
	<g class="st1">
		<path class="st4" d="M2201.3-644.7l31.4,54.4l-31.4,54.4h-62.9l-31.4-54.4l31.4-54.4H2201.3 M2208.9-657.9h-78.1l-39,67.6l39,67.6
			h78.1l39-67.6L2208.9-657.9L2208.9-657.9z"/>
	</g>
	<g class="st1">
		<path class="st4" d="M2327.5-569.8l31.4,54.4l-31.4,54.4h-62.9l-31.4-54.4l31.4-54.4H2327.5 M2335.1-583H2257l-39,67.6l39,67.6
			h78.1l39-67.6L2335.1-583L2335.1-583z"/>
	</g>
	<g class="st1">
		<path class="st4" d="M2455.8-644.7l31.4,54.4l-31.4,54.4h-62.9l-31.4-54.4l31.4-54.4H2455.8 M2463.4-657.9h-78.1l-39,67.6l39,67.6
			h78.1l39-67.6L2463.4-657.9L2463.4-657.9z"/>
	</g>
	<g class="st1">
		<path class="st4" d="M2582-569.8l31.4,54.4L2582-461h-62.9l-31.4-54.4l31.4-54.4H2582 M2589.6-583h-78.1l-39,67.6l39,67.6h78.1
			l39-67.6L2589.6-583L2589.6-583z"/>
	</g>
	<g class="st1">
		<path class="st4" d="M2710.3-644.7l31.4,54.4l-31.4,54.4h-62.9l-31.4-54.4l31.4-54.4H2710.3 M2717.9-657.9h-78.1l-39,67.6l39,67.6
			h78.1l39-67.6L2717.9-657.9L2717.9-657.9z"/>
	</g>
	<g class="st1">
		<path class="st4" d="M2327.5-420.1l31.4,54.4l-31.4,54.4h-62.9l-31.4-54.4l31.4-54.4H2327.5 M2335.1-433.3H2257l-39,67.6l39,67.6
			h78.1l39-67.6L2335.1-433.3L2335.1-433.3z"/>
	</g>
	<g class="st1">
		<path class="st4" d="M2455.8-495l31.4,54.4l-31.4,54.4h-62.9l-31.4-54.4l31.4-54.4H2455.8 M2463.4-508.2h-78.1l-39,67.6l39,67.6
			h78.1l39-67.6L2463.4-508.2L2463.4-508.2z"/>
	</g>
	<g class="st1">
		<path class="st4" d="M2582-420.1l31.4,54.4l-31.4,54.4h-62.9l-31.4-54.4l31.4-54.4H2582 M2589.6-433.3h-78.1l-39,67.6l39,67.6
			h78.1l39-67.6L2589.6-433.3L2589.6-433.3z"/>
	</g>
	<g class="st1">
		<path class="st4" d="M2710.3-495l31.4,54.4l-31.4,54.4h-62.9l-31.4-54.4l31.4-54.4H2710.3 M2717.9-508.2h-78.1l-39,67.6l39,67.6
			h78.1l39-67.6L2717.9-508.2L2717.9-508.2z"/>
	</g>
	<g class="st1">
		<path class="st4" d="M2836.5-420.1l31.4,54.4l-31.4,54.4h-62.9l-31.4-54.4l31.4-54.4H2836.5 M2844.1-433.3H2766l-39,67.6l39,67.6
			h78.1l39-67.6L2844.1-433.3L2844.1-433.3z"/>
	</g>
	<g class="st1">
		<path class="st4" d="M2964.8-495l31.4,54.4l-31.4,54.4h-62.9l-31.4-54.4l31.4-54.4H2964.8 M2972.4-508.2h-78.1l-39,67.6l39,67.6
			h78.1l39-67.6L2972.4-508.2L2972.4-508.2z"/>
	</g>
	<g class="st1">
		<path class="st4" d="M2325.3-272.6l31.4,54.4l-31.4,54.4h-62.9l-31.4-54.4l31.4-54.4H2325.3 M2332.9-285.8h-78.1l-39,67.6l39,67.6
			h78.1l39-67.6L2332.9-285.8L2332.9-285.8z"/>
	</g>
	<g class="st1">
		<path class="st4" d="M2453.6-347.4l31.4,54.4l-31.4,54.4h-62.9l-31.4-54.4l31.4-54.4H2453.6 M2461.3-360.6h-78.1l-39,67.6l39,67.6
			h78.1l39-67.6L2461.3-360.6L2461.3-360.6z"/>
	</g>
	<g class="st1">
		<path class="st4" d="M2579.8-272.6l31.4,54.4l-31.4,54.4H2517l-31.4-54.4l31.4-54.4H2579.8 M2587.4-285.8h-78.1l-39,67.6l39,67.6
			h78.1l39-67.6L2587.4-285.8L2587.4-285.8z"/>
	</g>
	<g class="st1">
		<path class="st4" d="M2708.1-347.4l31.4,54.4l-31.4,54.4h-62.9l-31.4-54.4l31.4-54.4H2708.1 M2715.7-360.6h-78.1l-39,67.6l39,67.6
			h78.1l39-67.6L2715.7-360.6L2715.7-360.6z"/>
	</g>
	<g class="st1">
		<path class="st4" d="M2834.3-272.6l31.4,54.4l-31.4,54.4h-62.9l-31.4-54.4l31.4-54.4H2834.3 M2841.9-285.8h-78.1l-39,67.6l39,67.6
			h78.1l39-67.6L2841.9-285.8L2841.9-285.8z"/>
	</g>
	<g class="st1">
		<path class="st4" d="M2962.6-347.4l31.4,54.4l-31.4,54.4h-62.9l-31.4-54.4l31.4-54.4H2962.6 M2970.2-360.6h-78.1l-39,67.6l39,67.6
			h78.1l39-67.6L2970.2-360.6L2970.2-360.6z"/>
	</g>
</g>
<g id="Layer_3">
	<g>
		<path class="st5" d="M104.6,52.1L68.8,92.6l8.7,10.1l47-53.2h-14.1C108.2,49.5,106.1,50.4,104.6,52.1z"/>
		<path class="st5" d="M132.1,52.1l-49.7,56.2l8.7,10.1L152,49.5h-14.1C135.7,49.5,133.5,50.4,132.1,52.1z"/>
		<path class="st5" d="M179.4,49.5h-14c-2.2,0-4.4,1-5.9,2.6l-63.6,72l0,0l0,0l57.4,66.7c1.5,1.7,3.6,2.7,5.9,2.7h13.8l-59.7-69.3
			L179.4,49.5z"/>
		<path class="st6" d="M118.7,193.5l-49.9-57.9v20.2l30.2,35c1.5,1.7,3.6,2.7,5.9,2.7H118.7z"/>
		<path class="st6" d="M145.9,193.5l-77.1-89.5v20.2l57.4,66.6c1.5,1.7,3.6,2.7,5.9,2.7H145.9z"/>
		<g>
			<path class="st6" d="M203.8,60h13.1v122.8h-13.1V60z M256.9,96h16.7l-36,41l39.6,45.7h-16.7l-39.6-45.7L256.9,96z"/>
			<path class="st6" d="M294,57.7c4.7,0,8.5,4,8.5,8.6c0,4.7-3.8,8.5-8.5,8.5c-4.9,0-8.6-3.8-8.6-8.5
				C285.4,61.5,289.2,57.7,294,57.7z M287.4,96h13.1v86.8h-13.1V96z"/>
			<path class="st6" d="M320.4,72.6h13.1V96h34.7v12.4h-34.7v43.9c0,14.9,6.7,19.4,16.7,19.4c7.2,0,14.8-1.8,19.8-4.1l2,12.4
				c-5.8,2.5-13.7,4.1-21.8,4.1c-17.5,0-29.9-8.1-29.9-31.9V72.6z"/>
			<path class="st6" d="M414.9,165L438.5,96h13.3l23.6,68.9L498.9,96h13.5l-30.2,86.8h-13.5l-23.6-66.4l-23.6,66.4H408L377.8,96
				h13.5L414.9,165z"/>
			<path class="st6" d="M583.5,179.2c-8.1,2.9-20.9,5-32.9,5c-20.9,0-34.7-7-34.7-26.6c0-19.4,13.9-26.8,37.4-26.8h17.1v-8.5
				c0-11.9-8.3-15.7-22-15.7c-10.1,0-18.4,1.8-23.8,3.8l-2-12.1c7-2,15.8-3.8,26.3-3.8c19.8,0,34.6,7.2,34.6,28.8V179.2z
				 M570.4,141.2h-16.9c-16,0-24.5,4-24.5,16.2s8.5,15.5,21.2,15.5c6.3,0,14.6-0.7,20.2-2.5V141.2z"/>
			<path class="st6" d="M603.6,99.6c5.8-2.7,16.6-4.9,27.2-4.9c6.8,0,12.6,0.7,17.3,2.2l-2.5,12.2c-2.7-1.1-8.1-2-14.4-2
				c-7.4,0-11.3,0.9-14.4,2.3v73.3h-13.1V99.6z"/>
			<path class="st6" d="M724.3,144.6H665v0.7c0,18.4,10.6,26.5,28.6,26.5c10.1,0,20.7-2.5,27.2-5.9l2,12.4
				c-8.5,3.8-18.7,5.9-29.3,5.9c-27.7,0-41.8-13.9-41.8-44.6c0-25,9.2-45,37.6-45c22.9,0,36.4,12.8,36.4,38
				C725.7,136.2,725.3,140.8,724.3,144.6z M665,133.5h48.1v-1.1c0-18.5-9.4-26.1-24.1-26.1c-14.6,0-23.9,7.4-23.9,26.1V133.5z"/>
		</g>
	</g>
</g>
<g id="Layer_1" class="st0">
	<line class="st7" x1="-456.7" y1="60.7" x2="-332.9" y2="204.4"/>
	<line class="st8" x1="-420.7" y1="164.9" x2="-513" y2="57.7"/>
	<line class="st8" x1="-435.2" y1="179.6" x2="-527.5" y2="72.4"/>
</g>
</svg>
