<?xml version="1.0" encoding="UTF-8"?>
<svg width="187px" height="94px" viewBox="0 0 187 94" version="1.1" xmlns="http://www.w3.org/2000/svg" xmlns:xlink="http://www.w3.org/1999/xlink">
    <!-- Generator: Sketch 43.2 (39069) - http://www.bohemiancoding.com/sketch -->
    <title>itkjs</title>
    <desc>Created with Sketch.</desc>
    <defs></defs>
    <g id="Page-1" stroke="none" stroke-width="1" fill="none" fill-rule="evenodd">
        <g id="itkjs">
            <g id="itk" transform="translate(10.000000, 4.000000)">
                <path d="M29.8356158,35.6112964 C29.8356158,35.6112964 34.7825835,32.6951883 36.9289878,30.5146698 C39.0753921,28.3341514 42.9691561,22.2690167 42.9691561,22.2690167 L44.9972568,22.2690167 L44.9972568,35.6112964 L56.3033823,35.6112964 L56.1895368,38.5477941 L44.9972568,38.5477941 L44.9972568,62.9044082 C44.9972568,62.9044082 46.4740105,68.0834913 49.8634308,68.332603 C53.2528511,68.5817146 56.3033823,65.5430172 56.3033823,65.5430172 L57.206204,67.0719471 C57.206204,67.0719471 52.1657585,72.2039952 45.7782289,72.3485844 C39.3906992,72.4931737 35.5056537,66.9662634 35.4346988,65.5430172 C35.3637439,64.119771 35.4346988,38.5477941 35.4346988,38.5477941 L29.8356158,38.5477941 L29.8356158,35.6112964 Z" id="Path-2" fill="#285299"></path>
                <path d="M57.2450164,16.3058824 L70.9734077,16.3058824 L70.9734077,52.7756692 C70.9734077,52.7756692 72.135912,53.1700485 72.6901713,52.7756692 C73.2444307,52.3812899 83.3833741,43.9454463 83.3833741,43.9454463 L83.3833741,39.6375058 L79.448588,39.6375058 L79.448588,37.6423485 L95.8714835,37.6423485 L95.8714835,39.6375058 L92.6757206,39.6375058 L79.448588,50.3201764 L80.452535,51.9443999 L94.4896865,69.4865689 C94.4896865,69.4865689 97.9626639,69.0246175 98.6808197,69.4865689 C99.3989754,69.9485204 98.6808197,72.1825023 98.6808197,72.1825023 L84.7947129,71.5850102 L72.6901713,55.6665093 L70.9734077,55.6665093 L70.9734077,67.4597601 L74.6180164,71.5850102 L57.8782606,71.5850102 L62.5825646,67.4597601 L62.5825646,20.6960058 L59.6579198,17.7579659 C59.6579198,17.7579659 57.6374798,17.9941501 57.2450164,17.7579659 C56.852553,17.5217818 57.2450164,16.3058824 57.2450164,16.3058824 Z" id="Path-3" fill="#285299"></path>
                <g id="I" transform="translate(0.000000, 21.547059)">
                    <polygon id="Path" fill="#285299" points="5.42060764 4.09802656 5.42060764 2.06695456 22.035203 0.192725136 22.2326657 44.3553396 26.8064773 49.9599003 6.02575298 49.9599003 11.8447995 44.9125642 11.4321248 7.546987"></polygon>
                    <path d="M16.2660768,47.6135668 C16.2660768,47.6135668 12.1909138,45.1348235 11.2929025,42.8397201 C10.3948913,40.5446166 10.9271476,36.080114 10.9271476,36.080114 C10.9271476,36.080114 7.7141695,36.8473877 7.7141695,40.6486529 C7.7141695,44.449918 9.76042121,47.6797717 10.6472663,47.6797717 C11.5341113,47.6797717 16.2660768,47.6135668 16.2660768,47.6135668 Z" id="Path-4" stroke="#000000" fill="#E8B222"></path>
                    <path d="M11.0100024,18.6535427 L11.0281884,24.3822779 C11.0281884,24.3822779 15.1123752,27.9925522 16.6573141,29.0075348 C18.2022531,30.0225175 23.2576557,31.4653146 23.2576557,31.4653146 C23.2576557,31.4653146 24.9291745,31.5684741 24.9550823,35.1684939 C24.98099,38.7685137 22.4824439,39.109063 22.4824439,39.109063 C22.4824439,39.109063 18.1812526,37.9887675 12.7100992,34.5327197 C7.23894571,31.076672 7.74894586,29.1295624 7.74894586,25.7259148 C7.74894586,22.3222672 11.0100024,18.6535427 11.0100024,18.6535427 Z" id="Path-5" stroke="#000000" fill="#E8B222"></path>
                    <path d="M0.443707847,10.6795811 C-0.190073674,11.4921168 -0.0371847574,13.027961 0.443707847,13.5938331 C0.90959149,14.1420439 3.1088274,13.1967342 3.92796332,15.2048926 C4.74709924,17.213051 5.83211496,16.6095637 7.3253816,16.6095637 C8.81864824,16.6095637 8.88128677,14.7540298 9.85163623,14.763652 C10.8219857,14.7732742 11.30487,14.763652 12.0124165,14.763652 C12.7199629,14.763652 15.7481772,16.1799439 17.6077598,17.2017554 C19.4673423,18.2235669 22.3997565,20.4713328 22.3997565,20.4713328 L22.3498647,26.6672003 C22.3498647,26.6672003 26.4441738,24.0536327 26.4827129,18.7730091 C26.5212521,13.4923855 21.1089447,11.5552041 19.1741213,10.5085035 C17.2392978,9.4618029 13.0182179,9.45161465 12.1732451,9.45161465 C11.3282723,9.45161465 10.2341449,9.446841 9.85163623,9.45161465 C8.80849064,9.46463296 9.49631943,7.36316609 7.3253816,7.36316609 C5.15444377,7.36316609 4.94242879,7.98323395 4.28138818,9.05229208 C3.62034757,10.1213502 1.07748937,9.8670454 0.443707847,10.6795811 Z" id="Path-6" stroke="#000000" fill="#E8B222"></path>
                    <ellipse id="Oval" fill="#000000" cx="5.70068934" cy="10.4109677" rx="1" ry="1"></ellipse>
                    <ellipse id="Oval" fill="#000000" cx="5.70068934" cy="13.8825427" rx="1" ry="1"></ellipse>
                </g>
                <g id="eye">
                    <ellipse id="Oval-2" stroke="#285299" stroke-width="2" cx="14.0505817" cy="8.05702422" rx="14.0505817" ry="8.05702422"></ellipse>
                    <ellipse id="Oval-3" fill="#285299" cx="15.1495973" cy="7.72131488" rx="8.05097354" ry="7.72131488"></ellipse>
                    <ellipse id="Oval-4" fill="#000000" cx="15.1495973" cy="8.05702422" rx="3.15038095" ry="3.35709343"></ellipse>
                </g>
            </g>
            <path d="M153.33244,64.8954424 C153.082215,66.2403999 152.738161,67.6322538 152.300268,69.0710456 C151.862375,70.5098374 151.205545,71.8156778 150.329759,72.9886059 C149.453972,74.161534 148.296701,75.1233206 146.857909,75.8739946 C145.419117,76.6246686 143.589377,77 141.368633,77 C138.522327,77 136.207784,76.3040731 134.424933,74.9121984 C132.642082,73.5203237 131.500449,71.6358475 131,69.2587131 L138.225201,66.9128686 C138.350313,67.7573769 138.678728,68.476762 139.210456,69.0710456 C139.742183,69.6653292 140.445929,69.9624665 141.321716,69.9624665 C142.697951,69.9624665 143.683196,69.4776635 144.27748,68.5080429 C144.871763,67.5384223 145.294011,66.3185954 145.544236,64.8485255 L149.391421,42.8914209 L157.273458,42.8914209 L153.33244,64.8954424 Z M179.371314,50.961126 C178.745752,50.1166178 177.963812,49.4754267 177.025469,49.0375335 C176.087127,48.5996403 175.039327,48.3806971 173.882038,48.3806971 C173.35031,48.3806971 172.787313,48.4510717 172.193029,48.5918231 C171.598746,48.7325744 171.059207,48.9671565 170.574397,49.2955764 C170.089586,49.6239963 169.682978,50.0384247 169.354558,50.538874 C169.026138,51.0393233 168.86193,51.6492368 168.86193,52.3686327 C168.86193,53.3069752 169.229442,54.0498185 169.964477,54.597185 C170.699512,55.1445514 171.723854,55.6528127 173.037534,56.1219839 C174.476325,56.6224332 175.758708,57.1776109 176.884718,57.7875335 C178.010729,58.3974561 178.964697,59.093383 179.746649,59.8753351 C180.528601,60.6572872 181.122876,61.5408798 181.529491,62.5261394 C181.936106,63.511399 182.13941,64.6295737 182.13941,65.8806971 C182.13941,67.8824944 181.724982,69.5871243 180.896113,70.9946381 C180.067243,72.4021518 178.995985,73.5516041 177.682306,74.4430295 C176.368626,75.3344549 174.898578,75.9834653 173.272118,76.3900804 C171.645658,76.7966955 170.034861,77 168.439678,77 C167.251111,77 166.062562,76.8905284 164.873995,76.6715818 C163.685427,76.4526352 162.543795,76.1320396 161.449062,75.7097855 C160.354329,75.2875314 159.337806,74.7479926 158.399464,74.0911528 C157.461121,73.4343131 156.663542,72.6836503 156.006702,71.8391421 L161.77748,67.1474531 C162.43432,68.1483517 163.403926,68.9615697 164.686327,69.5871314 C165.968728,70.212693 167.266749,70.5254692 168.580429,70.5254692 C169.268547,70.5254692 169.933196,70.4550945 170.574397,70.3143432 C171.215597,70.1735918 171.786414,69.9390097 172.286863,69.6105898 C172.787313,69.2821699 173.186102,68.8599222 173.483244,68.3438338 C173.780386,67.8277454 173.928954,67.2100125 173.928954,66.4906166 C173.928954,65.3333275 173.45979,64.4184573 172.521448,63.7459786 C171.583105,63.0734998 170.332001,62.4714057 168.768097,61.9396783 C167.673364,61.5643413 166.649022,61.1420935 165.69504,60.6729223 C164.741059,60.203751 163.912202,59.6251151 163.208445,58.9369973 C162.504688,58.2488795 161.941691,57.4278421 161.519437,56.4738606 C161.097183,55.5198791 160.886059,54.3704267 160.886059,53.0254692 C160.886059,51.3364527 161.237932,49.811669 161.941689,48.4510724 C162.645446,47.0904758 163.607233,45.9332041 164.827078,44.9792225 C166.046923,44.025241 167.470054,43.2902171 169.096515,42.7741287 C170.722975,42.2580403 172.458883,42 174.30429,42 C175.27391,42 176.259155,42.0938328 177.260054,42.2815013 C178.260952,42.4691698 179.222739,42.742849 180.145442,43.1025469 C181.068146,43.4622449 181.920461,43.9079509 182.702413,44.4396783 C183.484365,44.9714057 184.141195,45.5813192 184.672922,46.269437 L179.371314,50.961126 Z" id="JS" fill="#8A8B8A"></path>
            <rect id="Rectangle-134" fill="#285299" transform="translate(119.363961, 68.363961) rotate(-315.000000) translate(-119.363961, -68.363961) " x="114.863961" y="63.863961" width="9" height="9" rx="4.5"></rect>
        </g>
    </g>
</svg>