<?xml version="1.0" encoding="UTF-8"?>
<svg width="336px" height="94px" viewBox="0 0 336 94" version="1.1" xmlns="http://www.w3.org/2000/svg" xmlns:xlink="http://www.w3.org/1999/xlink">
    <!-- Generator: Sketch 43.2 (39069) - http://www.bohemiancoding.com/sketch -->
    <title>kitware</title>
    <desc>Created with Sketch.</desc>
    <defs></defs>
    <g id="Page-1" stroke="none" stroke-width="1" fill="none" fill-rule="evenodd">
        <g id="kitware" fill-rule="nonzero">
            <g transform="translate(13.000000, 5.000000)">
                <g id="LogoMark">
                    <path d="M42.6127168,69.1468208 L39.8890173,69.1468208 C13.0473988,61.9421965 12.5202312,24.6450867 38.3075145,17.4843931 L44.2381503,17.4843931 C17.3965318,24.6890173 16.8254335,61.9861272 42.6127168,69.1468208 Z" id="Shape" fill="#00539B"></path>
                    <path d="M48.6751445,71.3872832 L45.9514451,71.3872832 C19.1098266,64.182659 18.582659,26.8855491 44.3699422,19.7248555 L50.300578,19.7248555 C23.4589595,26.8855491 22.8878613,64.182659 48.6751445,71.3872832 Z" id="Shape" fill="#00539B"></path>
                    <path d="M54.7375723,73.583815 L52.0138728,73.583815 C25.1722543,66.3791908 24.6450867,29.0820809 50.4323699,21.9213873 L56.3630058,21.9213873 C29.4774566,29.0820809 28.950289,66.3791908 54.7375723,73.583815 Z" id="Shape" fill="#00539B"></path>
                    <path d="M8.30289017,72.134104 C7.86358382,71.6947977 7.38034682,71.2554913 6.94104046,70.816185 C11.9052023,51.0913295 9.04971098,32.1572254 0.0439306358,18.2312139 C1.7132948,16.649711 3.38265896,15.0682081 5.05202312,13.4427746 C13.7942197,30.883237 15.1560694,51.9699422 8.30289017,72.134104 Z" id="Shape" fill="#00A94F"></path>
                    <path d="M10.2358382,73.9791908 C9.79653179,73.5398844 9.3132948,73.100578 8.87398844,72.6612717 C16.4739884,52.3213873 15.683237,30.3560694 7.07283237,11.5537572 C8.74219653,9.97225434 10.4115607,8.39075145 12.0369942,6.76531792 C20.4277457,29.0381503 19.6809249,53.2 10.2358382,73.9791908 Z" id="Shape" fill="#00A94F"></path>
                    <path d="M12.1248555,75.7803468 C11.6855491,75.3410405 11.2023121,74.9017341 10.7630058,74.4624277 C20.9549133,53.5514451 22.316763,28.5109827 14.0138728,4.87630058 C15.683237,3.29479769 17.3526012,1.7132948 19.0219653,0.0878612717 C27.0612717,27.2369942 24.1618497,54.4739884 12.1248555,75.7803468 Z" id="Shape" fill="#00A94F"></path>
                </g>
                <g id="Kitware" transform="translate(60.624277, 21.965318)" fill="#00539B">
                    <polygon id="Shape" points="19.0219653 2.50404624 15.2 20.2080925 15.3317919 20.2080925 33.2554913 2.50404624 45.8635838 2.50404624 23.0635838 23.0635838 37.6046243 47.6208092 26.7976879 47.6208092 14.2774566 24.6890173 9.35722543 47.6208092 0.307514451 47.6208092 10.016185 2.50404624 19.0219653 2.50404624"></polygon>
                    <path d="M49.2023121,14.3213873 L57.8566474,14.3213873 L50.7398844,47.6208092 L42.0855491,47.6208092 L49.2023121,14.3213873 Z M52.3653179,0 L61.0196532,0 L59.2184971,8.25895954 L50.5641618,8.25895954 L52.3653179,0 Z" id="Shape"></path>
                    <path d="M62.8208092,14.3213873 L69.1028902,14.3213873 L70.5965318,7.46820809 L79.9098266,4.43699422 L77.7572254,14.3213873 L85.532948,14.3213873 L84.1710983,20.6473988 L76.3953757,20.6473988 L73.2323699,35.1884393 C73.0566474,35.9791908 72.8369942,37.1213873 72.8369942,38.3953757 C72.8369942,40.416185 74.1988439,41.6462428 76.1317919,41.6462428 C77.6693642,41.6462428 79.2508671,41.3387283 80.3491329,40.8554913 L78.8554913,47.5768786 C77.3618497,47.8843931 75.6924855,48.3676301 74.1988439,48.3676301 C68.3121387,48.3676301 64.182659,46.0393064 64.182659,39.6254335 C64.182659,37.033526 64.7098266,34.5294798 65.2809249,31.849711 L67.7410405,20.6034682 L61.4589595,20.6034682 L62.8208092,14.3213873 Z" id="Shape"></path>
                    <polygon id="Shape" points="89.1352601 14.3213873 97.7895954 14.3213873 100.16185 39.3179191 100.293642 39.3179191 112.506358 14.3213873 122.127168 14.3213873 123.928324 39.3179191 124.060116 39.3179191 136.843931 14.3213873 145.717919 14.3213873 127.223121 47.6208092 117.47052 47.6208092 115.581503 22.1410405 115.449711 22.1410405 103.324855 47.6208092 93.4843931 47.6208092"></polygon>
                    <path d="M162.763006,42.5248555 L162.631214,42.5248555 C159.643931,46.2589595 156.700578,48.4115607 151.912139,48.4115607 C145.893642,48.4115607 141.63237,45.0728324 141.63237,38.9225434 C141.63237,27.9398844 153.889017,27.1052023 162.060116,27.1052023 L165.091329,27.1052023 C165.354913,26.182659 165.354913,25.216185 165.354913,24.249711 C165.354913,20.867052 161.752601,19.900578 158.677457,19.900578 C154.855491,19.900578 151.165318,20.867052 147.738728,22.4924855 L148.968786,15.5953757 C152.65896,14.3213873 156.393064,13.5745665 160.25896,13.5745665 C166.936416,13.5745665 173.174566,16.0346821 173.174566,23.8543353 C173.174566,28.2913295 169.879769,41.382659 169.089017,47.6208092 L161.796532,47.6208092 L162.763006,42.5248555 Z M154.284393,42.0416185 C160.742197,42.0416185 162.763006,37.5606936 164.124855,32.2011561 L161.093642,32.2011561 C156.876301,32.2011561 149.891329,32.9040462 149.891329,38.5271676 C149.891329,40.899422 152.087861,42.0416185 154.284393,42.0416185 Z" id="Shape"></path>
                    <path d="M181.916763,18.8023121 C182.180347,17.3965318 182.443931,15.9028902 182.707514,14.3213873 L190.966474,14.3213873 L189.824277,20.6034682 L189.956069,20.6034682 C191.493642,17.0011561 195.754913,13.5745665 199.796532,13.5745665 C200.894798,13.5745665 202.080925,13.6184971 203.091329,13.8820809 L201.290173,22.3606936 C200.323699,22.0531792 199.093642,21.833526 197.995376,21.833526 C191.845087,21.833526 188.901734,27.3248555 187.759538,32.6843931 L184.640462,47.6208092 L175.986127,47.6208092 L181.916763,18.8023121 Z" id="Shape"></path>
                    <path d="M209.461272,33.6508671 C209.461272,39.8011561 212.756069,42.0416185 218.686705,42.0416185 C222.245087,42.0416185 225.671676,41.1190751 228.878613,39.6693642 L227.780347,46.5225434 C224.441618,47.5768786 220.751445,48.4115607 217.193064,48.4115607 C207.616185,48.4115607 201.158382,43.7549133 201.158382,33.8705202 C201.158382,23.5468208 209.153757,13.5745665 220.092486,13.5745665 C228.307514,13.5745665 233.710983,17.7919075 233.710983,26.2265896 C233.710983,28.7306358 233.403468,31.1907514 232.876301,33.6508671 L209.461272,33.6508671 Z M225.276301,27.7202312 C225.408092,26.9294798 225.452023,26.2265896 225.452023,25.4797688 C225.452023,21.9213873 223.563006,19.900578 219.960694,19.900578 C214.601156,19.900578 212.272832,23.1514451 210.603468,27.7202312 L225.276301,27.7202312 L225.276301,27.7202312 Z" id="Shape"></path>
                </g>
            </g>
        </g>
    </g>
</svg>