<?xml version="1.0" encoding="utf-8"?>
<!-- Generator: Adobe Illustrator 22.0.1, SVG Export Plug-In . SVG Version: 6.00 Build 0)  -->
<svg version="1.1" xmlns="http://www.w3.org/2000/svg" xmlns:xlink="http://www.w3.org/1999/xlink" x="0px" y="0px"
	 viewBox="0 0 1026 306.3" enable-background="new 0 0 1026 306.3" xml:space="preserve">
<g id="Layer_2">
</g>
<g id="Layer_1">
	<g id="Layer_2_2_">
	</g>
	<g>
		<path fill="#172C36" d="M365.2,113.7l-8.2,38.7h-20.5l21.7-102h27c13.4,0,23.2,2.6,29.1,7.7c6,5.1,7.8,13,5.6,23.6
			c-2.1,10-7.2,17.9-15.1,23.5c-7.9,5.7-17.7,8.5-29.4,8.5H365.2z M368.6,97.7h8.3c5.6,0,10.4-1.4,14.3-4.2
			c3.9-2.8,6.4-6.7,7.5-11.8c1-4.6,0-8.3-2.8-11c-2.9-2.8-7-4.2-12.3-4.2h-8.3L368.6,97.7z"/>
		<path fill="#172C36" d="M465.3,140.2c-4.3,5.5-8.7,9.2-13.4,11.1c-4.7,1.9-9,2.9-13.1,2.9c-7.9,0-13.8-2.2-17.6-6.5
			c-3.9-4.3-5.1-9.6-3.8-15.9c1.8-8.5,6.3-14.9,13.4-19.3c7.1-4.4,16.7-6.6,28.8-6.6h12l0.3-1.6c1.1-5.4,0.5-9.1-2.1-11.3
			c-2.5-2.2-6.4-3.3-11.8-3.3c-4.1,0-8.4,0.8-12.8,2.3c-4.5,1.6-8.4,3.6-11.9,6.1l3.1-17.1c2.8-1.4,7.1-2.7,13-3.9
			c5.8-1.2,10.8-1.8,14.9-1.8c11.4,0,19.1,2.6,23,7.7c3.9,5.2,4.7,13.5,2.2,25l-4.3,20.2c-1.4,6.6-2.4,12.3-3.1,17
			c-0.7,4.7-0.9,7.1-0.8,7.1h-17.5c-0.2,0-0.1-1.2,0.2-3.6C464,146.5,464.5,143.6,465.3,140.2z M468.7,119l0.3-1.3h-8.9
			c-7.3,0.2-12.8,1.3-16.6,3.4c-3.8,2-6.2,5.1-7.1,9.2c-0.6,3-0.1,5.4,1.6,7.1c1.7,1.7,4.6,2.6,8.7,2.6c5.7,0,10.6-2,14.5-6.1
			C465,129.7,467.5,124.8,468.7,119z"/>
		<path fill="#172C36" d="M518.9,152.5h-19.4l16-75.3h17.4l-3.7,17.4c3.3-6.7,7.3-11.6,11.9-14.6c4.7-3,9.2-4.5,13.5-4.5L560,76
			l-4.2,19.7c-0.7-0.4-1.7-0.8-3-1.1c-1.3-0.3-3.1-0.5-5.3-0.5c-5.6,0-10.1,2.4-13.8,7.1c-3.6,4.7-6.3,11.3-8.1,19.7L518.9,152.5z"
			/>
		<path fill="#172C36" d="M603.4,140.2c-4.3,5.5-8.7,9.2-13.4,11.1c-4.7,1.9-9,2.9-13.1,2.9c-7.9,0-13.8-2.2-17.6-6.5
			c-3.9-4.3-5.1-9.6-3.8-15.9c1.8-8.5,6.3-14.9,13.4-19.3c7.1-4.4,16.7-6.6,28.8-6.6h12l0.3-1.6c1.1-5.4,0.5-9.1-2.1-11.3
			c-2.5-2.2-6.4-3.3-11.8-3.3c-4.1,0-8.4,0.8-12.8,2.3c-4.5,1.6-8.4,3.6-11.9,6.1l3-17.1c2.8-1.4,7.1-2.7,13-3.9
			c5.8-1.2,10.8-1.8,14.9-1.8c11.4,0,19.1,2.6,23,7.7c3.9,5.2,4.7,13.5,2.2,25l-4.3,20.2c-1.4,6.6-2.4,12.3-3.1,17
			c-0.7,4.7-0.9,7.1-0.8,7.1h-17.5c-0.2,0-0.1-1.2,0.2-3.6C602.1,146.5,602.6,143.6,603.4,140.2z M606.8,119l0.3-1.3h-8.9
			c-7.3,0.2-12.8,1.3-16.6,3.4c-3.8,2-6.2,5.1-7.1,9.2c-0.6,3-0.1,5.4,1.6,7.1c1.7,1.7,4.6,2.6,8.7,2.6c5.7,0,10.6-2,14.5-6.1
			C603.1,129.7,605.6,124.8,606.8,119z"/>
		<path fill="#172C36" d="M724.3,50.5h20.3l-55.9,102h-25.1l-13.4-102h21.9l9.1,80.8L724.3,50.5z"/>
		<path fill="#172C36" d="M754.6,152.5H735l16-75.3h19.6L754.6,152.5z M753.9,63.5l4-18.7h19.6l-4,18.7H753.9z"/>
		<path fill="#172C36" d="M836.5,148.2c-3.7,1.9-7.7,3.3-12,4.4c-4.3,1.1-9,1.6-13.9,1.6c-13.1,0-22.3-3.4-27.9-10.2
			c-5.5-6.8-6.9-16.6-4.2-29.4c2.5-11.8,7.7-21.3,15.5-28.4c7.9-7.2,17.1-10.7,27.7-10.7c12.7,0,21,3.8,24.9,11.5
			c3.9,7.7,4.3,19,1.1,33.9h-52.2c-0.2,5.4,0.7,9.5,2.5,12.3c2.8,4.5,7.9,6.7,15.2,6.7c5.3,0,10.5-1,15.8-3c5.3-2,8.9-3.6,10.8-4.7
			L836.5,148.2z M798.2,107.5H832c0.9-5.6,0.3-10-1.8-13.1c-2.1-3.1-5.7-4.6-10.6-4.6c-5.7,0-10.5,2.2-14.7,6.6
			C802.3,99.1,800.1,102.8,798.2,107.5z"/>
		<path fill="#172C36" d="M939.5,77.2l4.7,56.1l27.6-56.1h18.7l-38.9,75.3h-23.2l-4-58.2l-28.6,58.2h-22.4L864,77.2h20.8l4.8,56.3
			l27.3-56.3H939.5z"/>
	</g>
	<polygon fill="#BE2128" points="112.3,256.9 43.6,256.9 100,43.3 168.7,43.3 	"/>
	<polygon fill="#249847" points="197.7,256.9 129,256.9 185.5,43.3 254.1,43.3 	"/>
	<polygon fill="#064F8C" points="283.1,256.9 214.4,256.9 270.9,43.3 339.5,43.3 	"/>
	<g>
		<g>
			<path fill="#4F4F4F" d="M388.5,192.3c-3-1.9-6.4-3.3-10-4.2c-3.6-0.9-7.5-1.3-11.6-1.3c-4.7,0-9,0.9-12.8,2.6
				c-3.8,1.7-7,4.1-9.7,7.1c-2.7,3-4.7,6.5-6.2,10.5c-1.4,4-2.2,8.3-2.2,12.9c0,3.1,0.5,6.1,1.6,8.8c1,2.8,2.5,5.2,4.4,7.2
				c1.9,2,4.2,3.6,6.9,4.8c2.7,1.2,5.7,1.8,9,1.8c1.8,0,3.3,0,4.5-0.1c1.2-0.1,2.3-0.3,3.2-0.7l4.3-20.6h-16.4l2.6-12.2h31.4
				l-8.9,42.3c-1.1,0.4-2.5,0.9-4.1,1.3c-1.6,0.4-3.4,0.8-5.2,1.1c-1.8,0.3-3.7,0.5-5.7,0.7c-2,0.2-3.9,0.3-5.8,0.3
				c-5.7,0-10.9-0.7-15.6-2c-4.7-1.3-8.7-3.4-12-6.2c-3.3-2.8-5.9-6.4-7.7-10.7c-1.8-4.3-2.7-9.5-2.7-15.5c0-7.1,1.1-13.5,3.3-19.1
				c2.2-5.6,5.4-10.4,9.4-14.4c4.1-4,9-7,14.7-9.1c5.7-2.1,12.1-3.2,19.1-3.2c4.4,0,8.8,0.3,13.2,1s8.6,1.8,12.7,3.3L388.5,192.3z"
				/>
			<path fill="#4F4F4F" d="M411.9,170.1h14.9l-17.7,83.3h-14.9L411.9,170.1z"/>
			<path fill="#4F4F4F" d="M461.5,244.6h-0.2c-2.6,3.3-5.3,5.8-8.1,7.5c-2.8,1.7-6.2,2.6-10.4,2.6c-5.2,0-9.4-1.4-12.7-4.2
				c-3.3-2.8-4.9-6.8-4.9-12.2c0-4.7,1.2-8.5,3.5-11.2s5.3-4.7,8.8-6.1c3.5-1.4,7.3-2.2,11.4-2.6c4.1-0.3,7.9-0.5,11.4-0.5h5.2
				c0.2-0.8,0.4-1.6,0.4-2.4c0-0.8,0.1-1.6,0.1-2.4c0-1.4-0.3-2.6-1.1-3.6c-0.7-1-1.6-1.7-2.7-2.3c-1.1-0.6-2.3-1-3.7-1.2
				c-1.3-0.2-2.7-0.3-4-0.3c-3.3,0-6.6,0.4-9.7,1.2c-3.1,0.8-6.1,1.9-9.1,3.3l2.1-11.9c3.2-1.1,6.4-2,9.6-2.6
				c3.2-0.6,6.5-0.9,9.8-0.9c2.9,0,5.7,0.3,8.3,0.9c2.7,0.6,5,1.6,7.1,2.9c2,1.4,3.7,3.2,4.9,5.4c1.3,2.3,1.9,5.1,1.9,8.4
				c0,1.3-0.1,2.9-0.4,4.9c-0.3,2-0.7,4.3-1.1,6.7c-0.4,2.4-0.9,5-1.4,7.7s-1,5.4-1.6,7.9c-0.5,2.6-1,5.1-1.4,7.4
				c-0.4,2.4-0.8,4.4-1,6.2h-12.6L461.5,244.6z M439.4,237.8c0,2,0.8,3.5,2.3,4.5c1.6,1,3.3,1.5,5.2,1.5c2.7,0,5.1-0.4,6.9-1.3
				c1.9-0.9,3.5-2.1,4.8-3.7c1.3-1.6,2.3-3.3,3.1-5.4c0.8-2,1.5-4.2,2.1-6.5h-5.2c-1.8,0-3.8,0.1-6.1,0.3c-2.3,0.2-4.4,0.7-6.3,1.5
				c-1.9,0.8-3.6,1.9-4.9,3.3C440,233.5,439.4,235.4,439.4,237.8z"/>
			<path fill="#4F4F4F" d="M497.5,204.4c0.4-1.7,0.7-3.3,0.9-4.7c0.2-1.4,0.4-2.6,0.6-3.5h14.6l-1,5.6h0.2c2.1-1.9,4.5-3.6,7.2-4.9
				c2.7-1.3,5.7-2,9-2c5.6,0,10.1,1.6,13.6,4.9c3.4,3.3,5.1,7.7,5.1,13.4c0,2.1-0.2,4.3-0.7,6.5c-0.4,2.2-0.9,4.2-1.2,5.9l-6,27.8
				h-14.9l5.6-27c0.4-1.9,0.7-3.9,1.1-5.8s0.6-4,0.6-6.2c0-2.4-0.8-4.3-2.3-5.8c-1.5-1.5-3.5-2.2-5.8-2.2c-2.6,0-4.8,0.6-6.6,1.7
				c-1.8,1.1-3.3,2.5-4.6,4.3c-1.2,1.7-2.2,3.7-3,5.8c-0.8,2.1-1.4,4.3-1.8,6.4l-6.1,28.8h-14.9L497.5,204.4z"/>
			<path fill="#4F4F4F" d="M602,209.3c-3-1.9-6.6-2.9-10.9-2.9c-3,0-5.6,0.6-7.9,1.9c-2.3,1.3-4.2,2.9-5.8,5
				c-1.6,2.1-2.8,4.4-3.6,7.1c-0.8,2.6-1.2,5.3-1.2,7.9c0,1.9,0.2,3.7,0.6,5.4c0.4,1.8,1,3.4,1.9,4.8c0.9,1.4,2.2,2.5,3.8,3.4
				c1.6,0.9,3.7,1.3,6.3,1.3c1.8,0,3.9-0.2,6-0.7c2.1-0.5,4.2-1.2,6.1-2.2l-1.7,11.8c-2.3,1.1-4.6,1.8-7.1,2.2
				c-2.4,0.3-4.8,0.5-7.3,0.5c-3.7,0-7.1-0.6-10.1-1.8c-3-1.2-5.6-2.8-7.7-5c-2.1-2.2-3.7-4.7-4.9-7.8c-1.2-3-1.7-6.4-1.7-10.1
				c0-5,0.8-9.6,2.4-13.9c1.6-4.3,3.9-8,6.8-11.2c2.9-3.2,6.5-5.7,10.7-7.4c4.2-1.8,8.8-2.7,13.9-2.7c2.8,0,5.5,0.2,8.1,0.7
				c2.6,0.4,4.8,1,6.8,1.6L602,209.3z"/>
			<path fill="#4F4F4F" d="M619.6,229.4c0,5.3,1.4,9.1,4.1,11.2c2.7,2.2,6.7,3.2,11.8,3.2c3.1,0,6.1-0.4,9-1.1
				c2.9-0.7,5.7-1.7,8.6-3l-1.9,11.8c-2.9,0.9-5.9,1.7-8.9,2.3c-3.1,0.6-6.2,0.9-9.3,0.9c-4.1,0-7.9-0.5-11.3-1.5
				c-3.4-1-6.3-2.5-8.7-4.6c-2.4-2.1-4.3-4.7-5.6-7.8c-1.3-3.1-2-6.8-2-11.1c0-4.4,0.8-8.8,2.4-12.9s3.9-7.9,6.8-11.2
				c2.9-3.3,6.3-5.9,10.3-7.8s8.3-2.9,13-2.9c3.6,0,6.8,0.4,9.6,1.3c2.9,0.9,5.3,2.2,7.4,4.1c2.1,1.8,3.7,4.1,4.8,6.8
				s1.7,5.9,1.7,9.6c0,2.1-0.1,4.3-0.4,6.4c-0.3,2.1-0.6,4.2-1.1,6.4H619.6z M646.8,219.2c0.2-1.3,0.3-2.6,0.3-3.9
				c0-3.1-0.8-5.5-2.4-7.1c-1.6-1.6-3.9-2.5-7.1-2.5c-4.6,0-8.1,1.3-10.4,3.8c-2.4,2.5-4.3,5.7-5.7,9.7H646.8z"/>
		</g>
	</g>
</g>
</svg>
