<?xml version="1.0" encoding="UTF-8"?>
<svg width="180px" height="180px" viewBox="0 0 180 180" version="1.1" xmlns="http://www.w3.org/2000/svg" xmlns:xlink="http://www.w3.org/1999/xlink">
    <!-- Generator: Sketch 43.2 (39069) - http://www.bohemiancoding.com/sketch -->
    <title>logofavicon</title>
    <desc>Created with Sketch.</desc>
    <defs>
        <polygon id="path-1" points="34.287257 110 9.97252962e-16 110 28.212743 -3.98901185e-15 62.5 -3.98901185e-15"></polygon>
        <polygon id="path-2" points="83.037257 110 48.75 110 76.962743 -3.98901185e-15 111.25 -3.98901185e-15"></polygon>
        <polygon id="path-3" points="131.787257 110 97.5 110 125.712743 -3.98901185e-15 160 -3.98901185e-15"></polygon>
    </defs>
    <g id="Page-1" stroke="none" stroke-width="1" fill="none" fill-rule="evenodd">
        <g id="favicon">
            <g id="Group" transform="translate(10.000000, 35.000000)">
                <g id="Shape">
                    <use fill="#AC262C" fill-rule="evenodd" xlink:href="#path-1"></use>
                    <path stroke="#000000" stroke-width="2" d="M33.5113695,109 L1.28884653,109 L28.9886305,1 L61.2111535,1 L33.5113695,109 Z"></path>
                </g>
                <g id="Shape">
                    <use fill="#258E44" fill-rule="evenodd" xlink:href="#path-2"></use>
                    <path stroke="#000000" stroke-width="2" d="M82.2613695,109 L50.0388465,109 L77.7386305,1 L109.961153,1 L82.2613695,109 Z"></path>
                </g>
                <g id="Shape">
                    <use fill="#1C4678" fill-rule="evenodd" xlink:href="#path-3"></use>
                    <path stroke="#000000" stroke-width="2" d="M131.011369,109 L98.7888465,109 L126.488631,1 L158.711153,1 L131.011369,109 Z"></path>
                </g>
            </g>
        </g>
    </g>
</svg>